<?xml version="1.0" standalone="no"?>
<!DOCTYPE svg PUBLIC "-//W3C//DTD SVG 1.1//EN" "http://www.w3.org/Graphics/SVG/1.1/DTD/svg11.dtd" >
<svg xmlns="http://www.w3.org/2000/svg" xmlns:xlink="http://www.w3.org/1999/xlink" version="1.1">
<metadata></metadata>
<defs>
<font id="neumannregular" horiz-adv-x="1306" >
<font-face units-per-em="2048" ascent="1638" descent="-410" />
<missing-glyph horiz-adv-x="634" />
<glyph horiz-adv-x="81" />
<glyph horiz-adv-x="81" />
<glyph horiz-adv-x="682" />
<glyph unicode="&#xd;" horiz-adv-x="733" />
<glyph unicode=" "  horiz-adv-x="634" />
<glyph unicode="&#x09;" horiz-adv-x="634" />
<glyph unicode="&#xa0;" horiz-adv-x="634" />
<glyph unicode="!" horiz-adv-x="450" d="M113 72q0 112 112 112q113 0 113 -112q0 -113 -113 -113q-112 0 -112 113zM135 1761h178l-53 -1376h-67z" />
<glyph unicode="&#x22;" horiz-adv-x="739" d="M137 1702q0 40 21.5 59t54.5 19t54.5 -19t21.5 -59q0 -145 -43 -440h-64q-45 308 -45 440zM451 1702q0 40 21.5 59t53.5 19q33 0 54.5 -19t21.5 -59q0 -145 -43 -440h-63q-45 308 -45 440z" />
<glyph unicode="#" horiz-adv-x="1568" d="M106 508l19 47h281l157 604h-287l19 47h280l148 555h68l-148 -555h475l148 555h69l-147 -555h268l-20 -47h-260l-160 -604h268l-16 -47h-264l-136 -508h-67l133 508h-475l-133 -508h-68l133 508h-285zM473 555h475l158 604h-475z" />
<glyph unicode="$" horiz-adv-x="1249" d="M121 408v81h133v-81q0 -50 2 -87t9.5 -78t20 -69.5t34.5 -56t53 -44t75.5 -27.5t100.5 -13h29v817l-37 20q-23 14 -83 45t-94 50.5t-83.5 60.5t-77 83t-48 109t-20.5 148q0 112 32.5 192.5t94 127t138.5 69t178 25.5v155h67v-155q137 -6 205 -61t86 -160l12 213h115v-457 h-133q-4 81 -14 140t-30.5 110t-51.5 83t-78 52t-111 24v-739q21 -12 62 -32.5l72 -36t73 -42t73 -52.5t64 -66t54 -84t35 -104.5t14 -129.5q0 -226 -104.5 -333.5t-342.5 -124.5v-175h-67v172h-29q-81 0 -146.5 15t-109.5 38.5t-76.5 59.5t-50.5 72t-28.5 82t-13.5 83 t-3 81zM287 1403q0 -48 7.5 -89t19 -71t32.5 -57.5t39.5 -45.5t50.5 -38.5t54.5 -33t60.5 -32.5q18 -9 27 -14v702q-74 -2 -124 -16.5t-89.5 -49t-58.5 -97.5t-19 -158zM645 37q79 9 133 39t83.5 80.5t41.5 110.5t12 141q0 61 -7 108.5t-25 85t-37 64.5t-54.5 54.5t-65 46 t-81.5 46.5v-776z" />
<glyph unicode="%" horiz-adv-x="1746" d="M113 1352q0 241 69 343.5t230 102.5q163 0 232 -102.5t69 -343.5q0 -243 -69 -346t-232 -103q-161 0 -230 103t-69 346zM231 1352q0 -223 42 -319.5t139 -96.5q99 0 140.5 96t39.5 320q-1 223 -43 318t-137 95q-97 0 -139 -95.5t-42 -317.5zM381 0l852 1761h45 l-852 -1761h-45zM952 436q0 241 69 344t230 103q163 0 232 -102.5t69 -344.5q0 -243 -69 -345.5t-232 -102.5q-161 0 -230 102.5t-69 345.5zM1071 436q0 -223 41.5 -319.5t138.5 -96.5q99 0 141 96t40 320q-1 222 -43.5 318t-137.5 96q-97 0 -138.5 -95.5t-41.5 -318.5z" />
<glyph unicode="&#x26;" horiz-adv-x="1658" d="M174 459q0 83 23.5 154t57.5 119t87.5 91.5t98.5 69t106 53.5q-127 237 -127 420q0 173 89.5 266.5t258.5 93.5q155 0 239.5 -78t84.5 -202q0 -80 -24.5 -146.5t-77 -124.5t-120 -107.5t-168.5 -106.5q50 -90 195 -283q142 -189 303 -350q62 153 62 389l-2 61h-142v51 h336v-51h-149l-2 -102q-6 -241 -64 -387q178 -172 348 -289l-141 -92q-106 69 -285 244q-135 -170 -440 -170q-122 0 -217.5 26.5t-156.5 71t-101 106.5t-56 129t-16 144zM338 494q0 -117 34.5 -206.5t94.5 -143t136 -80.5t165 -27q232 0 354 153q-223 229 -377 453 q-113 157 -167 248q-54 -33 -93 -65.5t-74.5 -79.5t-54 -110.5t-18.5 -141.5zM582 1405q0 -203 96 -397q114 54 182 128t92.5 151t24.5 175q0 105 -47.5 164t-145.5 55q-202 -9 -202 -276z" />
<glyph unicode="'" horiz-adv-x="499" d="M174 1702q0 40 21.5 59t54.5 19t54.5 -19t21.5 -59q0 -145 -43 -440h-64q-45 308 -45 440z" />
<glyph unicode="(" horiz-adv-x="790" d="M174 778q0 140 26.5 280t81 279t147.5 266.5t216 223.5l23 -25q-162 -162 -248 -429.5t-84 -594.5q-1 -328 85.5 -595t246.5 -427l-23 -24q-123 95 -216 222t-147.5 265.5t-81 278.5t-26.5 280z" />
<glyph unicode=")" horiz-adv-x="759" d="M92 -244q160 160 246.5 427t85.5 595q2 327 -84 594.5t-248 429.5l23 25q123 -96 216 -223.5t147.5 -266.5t81 -279t26.5 -280t-26.5 -280t-81 -278.5t-147.5 -265.5t-216 -222z" />
<glyph unicode="*" horiz-adv-x="1249" d="M124 943.5q-1 18.5 10.5 39t37.5 35.5q17 10 34.5 19t43.5 20t46 19.5t61 24t69.5 26t90 33t104.5 38.5q-76 30 -169 65.5t-131 50t-79 33t-70 35.5q-26 16 -37.5 36.5t-10.5 39t11 35.5q14 25 42 33t71 -13q73 -43 330 -256q36 -29 55 -45q-7 44 -19 111t-16.5 96 t-12 73.5t-10.5 66t-6.5 50t-4.5 48t-1 39.5q0 45 22.5 66.5t53.5 21.5t53.5 -21.5t22.5 -66.5q0 -33 -5 -79t-10 -83t-21.5 -140.5t-27.5 -176.5q27 22 68 56t60 50t50 41t45.5 36.5t36.5 29t34.5 26.5t29 21t29.5 20l26 16q45 21 72 13.5t43 -33.5q9 -17 10 -35 t-10.5 -39.5t-38.5 -36.5q-29 -17 -70 -35.5t-79 -33t-131 -50t-169 -65.5q33 -12 83.5 -30.5t74.5 -27.5t61 -22.5t54.5 -20.5t44 -17.5t41 -16.5t32.5 -14.5t31.5 -15.5t26.5 -15q27 -15 38.5 -36t10.5 -39t-10 -34q-16 -27 -43 -35t-72 13q-29 16 -65 42.5t-67.5 51.5 t-107 86t-137.5 111q8 -52 19.5 -124.5t16 -104.5t11 -76.5t9 -68t4.5 -50t2 -49.5q0 -44 -23 -66.5t-53 -22.5t-53 22.5t-23 66.5q0 27 2 54t9 76t12 79.5t20.5 121.5t24.5 146q-63 -50 -140 -112t-109 -87.5t-68.5 -52t-65.5 -43.5q-43 -21 -71 -13t-42 35 q-10 16 -11 34.5z" />
<glyph unicode="+" horiz-adv-x="1294" d="M115 754v43h508v512h51v-512h508v-43h-508v-512h-51v512h-508z" />
<glyph unicode="," horiz-adv-x="487" d="M113 45q0 66 32 93.5t93 27.5q78 0 107.5 -45t29.5 -121q0 -49 -12.5 -91t-40 -79.5t-77.5 -63t-120 -34.5l-10 35q56 2 97.5 18.5t62.5 41t34 55.5t12 63t-4 63q-11 -37 -31.5 -51t-64.5 -14q-50 0 -79 21t-29 81z" />
<glyph unicode="-" horiz-adv-x="1165" d="M113 651v82h940v-82h-940z" />
<glyph unicode="." horiz-adv-x="450" d="M113 72q0 112 112 112q113 0 113 -112q0 -113 -113 -113q-112 0 -112 113z" />
<glyph unicode="/" horiz-adv-x="708" d="M92 -199l518 2114h58l-516 -2114h-60z" />
<glyph unicode="0" horiz-adv-x="1257" d="M162 883q0 299 43 557q13 68 35.5 122.5t49.5 90.5t62.5 63t68.5 41.5t72.5 23t69.5 11t66 2.5t66 -2.5t69.5 -11t72.5 -23t68.5 -41.5t62.5 -63t49.5 -90.5t35.5 -122.5q43 -258 43 -557t-43 -557q-17 -93 -54.5 -161.5t-79 -104.5t-98 -57.5t-98.5 -26.5t-94 -5t-94 5 t-98.5 26.5t-98 57.5t-79 104.5t-54.5 161.5q-43 258 -43 557zM328 758.5q0 -12.5 0.5 -57.5t1 -62t2 -55.5t3.5 -61t5 -55t7 -61t9 -56.5q19 -127 53.5 -197t85.5 -98t134 -28q123 0 183 68.5t89 254.5q14 81 21 183.5t7.5 156.5t0.5 193t-0.5 192.5t-7.5 156t-21 183.5 q-29 186 -89 255t-183 69t-183.5 -69t-89.5 -255q-5 -28 -9 -56t-7 -61l-5 -55t-3.5 -61t-2 -56t-1 -61.5t-0.5 -57v-64v-60.5v-60.5v-64z" />
<glyph unicode="1" horiz-adv-x="817" d="M104 0v51h238v1673l-217 -43l-4 52l276 65h115v-1747h201v-51h-609z" />
<glyph unicode="2" horiz-adv-x="1216" d="M174 2v201q0 63 12.5 118t31.5 96t50 79.5t60.5 64.5t71.5 54.5t74 47t76 43.5t71 42q74 47 122.5 104.5t74.5 130.5t36 149t10 177q0 85 -6.5 147.5t-23 118t-45 90t-74 54.5t-107.5 20q-72 0 -120 -24.5t-75.5 -76.5t-39.5 -116.5t-15 -159.5l-2 -62l-168 -2v41 q0 124 34.5 215t95.5 142.5t135.5 75.5t164.5 24q120 0 203.5 -31t131.5 -94t68.5 -148t20.5 -202q0 -99 -15.5 -179.5t-38 -134t-61 -100t-71.5 -74t-82 -59.5q-51 -33 -138 -89q-90 -59 -128.5 -84.5t-91 -66.5t-69.5 -66t-38 -67t-25.5 -85.5t-4.5 -106.5v-57h735v-152z " />
<glyph unicode="3" horiz-adv-x="1214" d="M174 328v182h152v-158q0 -96 18.5 -162t55.5 -101t81.5 -49.5t106.5 -14.5q82 0 136.5 23.5t84 56t44 102.5t17 124.5t2.5 160.5q0 32 -0.5 51.5t-2.5 57t-6 63t-12 61t-20 59.5t-30 50.5t-41 42t-55 26t-70 10.5h-162v52h162q66 0 110 22t68 67.5t33.5 103.5t9.5 142 q0 72 -2.5 122.5t-11 105t-25 90t-43 65.5t-67 44t-95.5 14q-260 0 -260 -334v-109h-151v132q0 90 27 158t68 106.5t99 62.5t110 31.5t111 7.5q219 0 311.5 -113.5t92.5 -336.5q0 -186 -63.5 -288t-213.5 -124q87 -15 147 -55.5t92 -104t45 -135t13 -164.5 q0 -120 -11.5 -199.5t-39.5 -142t-80 -96.5t-129.5 -51t-191.5 -17q-46 0 -81 2t-80.5 10.5t-78.5 23t-67.5 41.5t-56.5 64t-36 92.5t-14 125.5z" />
<glyph unicode="4" horiz-adv-x="1177" d="M127 455l2 51l635 1255h106l-2 -1255h205v-51h-205v-404h201v-51h-580v51h211v404h-573zM203 506h495v969z" />
<glyph unicode="5" horiz-adv-x="1177" d="M174 330v141h152v-117q0 -96 18.5 -161.5t55 -100.5t81 -49t107.5 -14q52 0 91.5 13t67 33.5t47 58.5t30.5 76.5t17 98.5t7.5 113.5t1.5 132.5q0 86 -0.5 128.5t-4 109t-10.5 98t-20 76.5t-33 65t-49 42t-69 30t-91 8q-261 0 -272 -250h-94l2 899h711v-149h-644l-2 -651 q16 59 48 101t74.5 64t85.5 31.5t91 9.5q91 0 157.5 -13.5t113 -33t77 -64.5t47.5 -83t25 -116t9.5 -135t1.5 -167q0 -89 -3.5 -153.5t-14.5 -129t-30 -108t-49.5 -82.5t-74.5 -61.5t-104.5 -35t-139.5 -12.5q-46 0 -80.5 2t-80.5 10t-79 22.5t-68 41t-56.5 63.5t-35.5 92.5 t-14 125.5z" />
<glyph unicode="6" horiz-adv-x="1163" d="M174 555q0 217 6 426q6 289 20 396q30 230 138 326q102 91 293 91q192 0 287.5 -93t95.5 -302l-148 2q0 178 -54 257t-177 81q-51 0 -92 -12.5t-70 -37.5t-50.5 -58.5t-35.5 -80t-22.5 -96.5t-13 -113.5t-6.5 -126t-4 -138.5v-17.5t-0.5 -16.5t-0.5 -18q59 143 266 143 q63 0 113.5 -5t91 -19.5t71.5 -29t54 -44t39 -53t26.5 -69t16 -78t8.5 -93.5t3.5 -103t0.5 -118q0 -86 -3.5 -147t-14 -126t-29 -109t-50 -84.5t-76 -64t-107.5 -37.5t-144 -14q-84 0 -147.5 12t-109.5 33t-77.5 59.5t-50.5 80.5t-29.5 108t-14 130.5t-3.5 158.5zM326 555 q0 -114 2 -175.5t10.5 -132t26 -103t49 -64t78 -41.5t114.5 -10q47 0 84.5 8t65 26.5t47.5 40.5t33.5 59.5t21.5 73.5t12.5 91.5t5.5 104.5t1 122q0 246 -14 333q-24 143 -109 191q-57 32 -148 33q-46 0 -83 -9t-65 -20.5t-49 -38t-35 -46.5t-23.5 -64t-14.5 -72t-7 -87.5 t-2.5 -94t-0.5 -107.5v-6.5v-5.5v-6z" />
<glyph unicode="7" horiz-adv-x="976" d="M51 1638v144h850l4 -137q-77 -118 -137 -224.5t-104.5 -210.5t-76 -191t-53 -190.5t-34 -183t-19.5 -194.5t-9.5 -199t-4.5 -221h-170q7 202 21.5 355.5t45.5 292t66 242t100.5 228.5t129.5 227.5t171 261.5h-780z" />
<glyph unicode="8" horiz-adv-x="1282" d="M174 449q0 124 15.5 205.5t53.5 135.5t90 85t136 57q-150 25 -212 128.5t-62 287.5q0 111 21 190t71 139t138 89.5t216 29.5q127 0 214.5 -28.5t138 -87.5t72 -139t21.5 -193q0 -186 -62.5 -289t-211.5 -127q67 -21 111.5 -43.5t82 -58t58.5 -86t32 -122t11 -171.5 q0 -104 -11 -180t-37 -129.5t-60 -86.5t-89.5 -52t-116.5 -25.5t-149 -6.5q-109 0 -181 11t-131.5 40t-92 83t-49.5 137.5t-17 206.5zM340 446q0 -44 0.5 -74t3 -67t7.5 -62t12.5 -54t19.5 -48t28 -39.5t38.5 -32.5t50 -22.5t63 -15t78.5 -4.5q48 0 87.5 7t69 17.5t52 30.5 t37.5 39t25.5 51t16.5 58t9 68.5t3.5 73t0.5 81.5q0 47 -0.5 75.5t-3.5 72t-8.5 71t-16 63t-25.5 58t-38 46.5t-52 37.5t-69 22t-88 8.5q-53 0 -96 -9t-73.5 -29t-53 -43t-36.5 -59t-23 -67.5t-13 -79t-5 -84t-1 -90.5zM360 1311q0 -46 2 -80.5t9 -73t19.5 -65t33.5 -52 t50 -41t71.5 -25t95.5 -9.5q74 0 126.5 18t82 46t46.5 74.5t21.5 90t4.5 106.5q0 147 -2 175q-14 170 -114 229q-64 37 -165 37q-59 0 -105 -12.5t-75.5 -35t-50.5 -52.5t-30 -65.5t-15 -74t-5 -77.5t0 -76v-37z" />
<glyph unicode="9" horiz-adv-x="1257" d="M154 1210q0 150 19.5 253t67.5 180.5t133 114t212 36.5q73 0 132.5 -10.5t107 -29.5t84 -52.5t64 -73.5t46.5 -98.5t31.5 -121t19.5 -149t9.5 -174t2.5 -202.5t-2 -190.5t-8.5 -171t-20 -157.5t-35.5 -131.5t-57 -112t-82.5 -79.5t-113.5 -53.5t-148 -16.5q-38 0 -67 1.5 t-77.5 9.5t-84.5 21.5t-77.5 41.5t-68.5 66.5t-45 99t-18 135.5l2 127l142 2l-5 -115q0 -95 25.5 -163.5t70 -104.5t94 -51.5t109.5 -15.5q61 0 108.5 23t79.5 57t54 97.5t33.5 120t17.5 151t7.5 163.5t1.5 182q-28 -56 -62.5 -93t-78 -56t-87.5 -26t-104 -7 q-82 0 -145 12.5t-109 34t-78 59.5t-51.5 81t-30.5 106.5t-14.5 127t-3.5 152.5zM305 1210q0 -67 1.5 -115t6 -101t13.5 -89.5t23.5 -73.5t36 -60.5t51 -42.5t69 -27.5t88.5 -8.5q76 0 130.5 21t90 60.5t56.5 104.5t29.5 144t8.5 188q0 79 -3 136.5t-11 116t-22 98.5 t-37.5 76t-57 57t-79.5 33t-105 12q-71 0 -123 -25.5t-83.5 -69t-50.5 -113t-25.5 -145t-6.5 -176.5z" />
<glyph unicode=":" horiz-adv-x="450" d="M113 74q0 112 112 112q113 0 113 -112q0 -113 -113 -113q-112 0 -112 113zM113 944q0 113 112 113q113 0 113 -113t-113 -113q-112 0 -112 113z" />
<glyph unicode=";" horiz-adv-x="487" d="M113 63q0 66 32 93.5t93 27.5q78 0 107.5 -45t29.5 -121q0 -49 -12.5 -91t-40 -79.5t-77.5 -63t-120 -34.5l-6 29q54 9 94 28t61.5 44t34 54.5t12 60t-3.5 61.5q-11 -37 -31.5 -51.5t-64.5 -14.5q-50 0 -79 21t-29 81zM113 938q0 113 112 113q113 0 113 -113t-113 -113 q-112 0 -112 113z" />
<glyph unicode="&#x3c;" d="M133 752l1000 508l20 -54l-934 -454l934 -455l-20 -53z" />
<glyph unicode="=" horiz-adv-x="1200" d="M113 561v43h974v-43h-974zM113 961v43h974v-43h-974z" />
<glyph unicode="&#x3e;" d="M174 297l934 455l-934 454l21 54l999 -508l-999 -508z" />
<glyph unicode="?" horiz-adv-x="862" d="M51 1262l2 223q5 77 26.5 131.5t52.5 86.5t80 50t97.5 23.5t116.5 5.5q61 0 109 -5t86.5 -13.5t66.5 -25.5t48.5 -35t34 -49.5t22 -60.5t12.5 -76.5t5 -89t1 -106.5q0 -92 -20 -154.5t-52.5 -95t-71.5 -55.5t-78.5 -47t-72 -58.5t-52.5 -101.5t-20 -164v-231h-96v231 q0 82 17.5 141.5t45.5 94.5t61.5 63.5t67 57.5t61.5 66.5t45.5 101.5t17.5 151v20q0 67 -0.5 97.5t-3 80t-9 71t-17.5 53.5t-28 45t-42 28t-59 20t-79 5q-64 0 -105.5 -14.5t-66 -47.5t-35.5 -76.5t-16 -111.5l-2 -229h-150zM287 94q0 113 112 113q113 0 113 -113 q0 -112 -113 -112q-112 0 -112 112z" />
<glyph unicode="@" horiz-adv-x="2177" d="M174 362q-10 186 36.5 349t139.5 286t222.5 211.5t290.5 132.5t339 41q162 -2 296 -43.5t226 -110.5t156 -161.5t93.5 -195.5t29.5 -214q0 -143 -49.5 -271.5t-130.5 -218t-187.5 -142t-218.5 -52.5q-114 0 -159.5 49.5t-30.5 118.5l14 62q-75 -128 -141 -173.5 t-178 -45.5q-175 0 -257.5 93.5t-82.5 291.5q0 194 74 346.5t199.5 234.5t279.5 82q116 0 179 -52.5t70 -172.5l52 213h145l-186 -850q-17 -85 -1 -112t74 -27q116 0 217 93.5t159.5 247t58.5 326.5q0 102 -23 192t-76 171.5t-131.5 140.5t-197.5 95t-267 38 q-276 4 -483.5 -103t-322.5 -316.5t-115 -497.5q0 -142 30 -257t76.5 -191t115 -132t134 -86t146.5 -47.5t139 -22t123 -4.5q234 0 408.5 45t322.5 127l18 -47q-149 -85 -343.5 -128.5t-399.5 -43.5q-83 0 -159 7t-164.5 27.5t-162.5 53.5t-146.5 89.5t-123.5 131t-85.5 183 t-41.5 239.5zM756 340q0 -165 50.5 -237t145.5 -72q58 0 105.5 24t83 70t61.5 99t51 126q14 40 26 85.5t18 74.5t14 68t10 49q6 31 10 60.5t5.5 73.5t-8 80.5t-28 70t-57 52.5t-92.5 19q-93 0 -170 -56.5t-125 -149t-74 -205.5t-26 -232z" />
<glyph unicode="A" horiz-adv-x="1300" d="M10 0v51h127l428 1716h187l409 -1716h129v-51h-522v51h215l-125 547h-506l-137 -547h184v-51h-389zM369 659h475l-226 981h-6z" />
<glyph unicode="B" horiz-adv-x="1302" d="M104 0v51h160v1659h-160v51h588q85 0 150 -9.5t111.5 -25.5t78.5 -45t51.5 -60.5t29.5 -80t13.5 -95t3.5 -114.5q0 -57 -6 -103.5t-23.5 -95t-46 -83t-77.5 -60.5t-115 -35q95 -13 152 -39t89.5 -80.5t43 -127.5t10.5 -195q0 -61 -1.5 -103t-6.5 -91.5t-14.5 -82.5 t-25.5 -69.5t-39 -59.5t-56 -45t-76.5 -34t-99.5 -19.5t-125 -7.5h-609zM434 51h258q56 0 98.5 9t73 24.5t51.5 45.5t33.5 62.5t19.5 85.5t9 104.5t2 129.5q0 80 -3.5 131t-14.5 101t-31.5 78.5t-55.5 51.5t-86 32t-122 9h-232v-864zM434 967h232q89 0 146 20.5t88 68.5 t42.5 111.5t11.5 163.5q0 63 -1 93.5t-6.5 79.5t-16.5 72.5t-32.5 54.5t-54 44.5t-80.5 24t-112 10.5h-217v-743z" />
<glyph unicode="C" horiz-adv-x="1263" d="M174 856q0 340 49 557q46 208 150.5 287.5t314.5 79.5q269 0 324 -189l12 181h115v-457h-133q-6 227 -74 315t-246 88q-152 0 -213.5 -65.5t-89.5 -253.5q-31 -227 -31 -588q0 -323 31 -481q13 -67 29 -114.5t39 -79.5t46 -51t60.5 -28.5t72 -12.5t89.5 -3q43 0 77.5 4.5 t61 12.5t47 23t35 30.5t24 41t15.5 49.5t9 60.5t4 68.5t1 79v82h164v-82q0 -50 -6.5 -95t-23 -96t-48.5 -92t-78.5 -75t-118.5 -53t-163 -19q-45 0 -73.5 1t-68.5 4.5t-66.5 10t-60 19t-57 30.5t-50 44.5t-46 61t-38.5 81t-34 102.5q-51 197 -51 522z" />
<glyph unicode="D" horiz-adv-x="1429" d="M104 0v51h160v1659h-160v51h635q110 0 181 -12.5t131 -48.5t97 -102.5t60 -172.5q47 -211 47 -553q0 -343 -49 -538q-18 -70 -42.5 -123.5t-49 -89t-62 -59.5t-65 -36t-76.5 -18t-77.5 -7t-85.5 -1h-7h-637zM434 51h219q37 0 59 0.5t57 3t56.5 7.5t50.5 15t48 24 t40.5 35.5t35.5 49t26 65t18 83.5q33 236 33 584q0 328 -33 509q-10 57 -30 102t-43 74t-57 50t-62.5 32t-68.5 17t-66 7t-64 1h-219v-1659z" />
<glyph unicode="E" d="M104 0v51h160v1659h-160v51h1029v-401h-134v350h-565v-762h428v189h88v-459h-88v209h-428v-836h574v357h133v-408h-1037z" />
<glyph unicode="F" horiz-adv-x="1185" d="M104 0v51h160v1659h-160v51h1020l2 -403h-133v352h-559v-776h430v203h88v-459h-88v205h-430v-832h246v-51h-576z" />
<glyph unicode="G" horiz-adv-x="1390" d="M174 874q0 347 51 556q26 106 63.5 173.5t95.5 107t130.5 54.5t179.5 15q276 0 338 -185l10 177h115v-457h-135l-6 90q-11 168 -84 240.5t-238 72.5q-61 0 -100 -6t-74.5 -23t-58 -50.5t-40.5 -86.5t-30 -133q-37 -233 -37 -549q0 -349 37 -534q33 -163 93 -229t188 -66 q327 0 327 342v367h-194v51h483v-51h-127v-750h-119l-6 268q-26 -155 -118 -221.5t-244 -66.5q-46 0 -76 1.5t-72.5 9t-72.5 21.5t-65.5 40.5t-62 63.5t-52.5 93t-46 127q-53 196 -53 538z" />
<glyph unicode="H" horiz-adv-x="1517" d="M104 0v51h160v1659h-160v51h490v-51h-160v-768h649v768h-159v51h489v-51h-160v-1659h160v-51h-489v51h159v821h-649v-821h160v-51h-490z" />
<glyph unicode="I" horiz-adv-x="698" d="M104 0v51h160v1659h-160v51h490v-51h-160v-1659h160v-51h-490z" />
<glyph unicode="J" horiz-adv-x="995" d="M41 344l145 2l2 -121q1 -54 21 -92t54.5 -56.5t69 -26t75.5 -7.5q26 0 50 3.5t55.5 16.5t54 34.5t38 62.5t15.5 96v1454h-267v51h598v-51h-161v-1417q0 -67 -20.5 -120.5t-56 -89t-84.5 -58.5t-103.5 -33t-116.5 -10q-48 0 -91.5 5t-96 21t-90.5 42t-63.5 73t-25.5 110z " />
<glyph unicode="K" horiz-adv-x="1388" d="M104 0v51h160v1659h-160v51h523v-51h-193v-762h156q48 0 84.5 5t66.5 19.5t51 31t38.5 48.5t28.5 63t21.5 83.5t17 100t15.5 122.5l33 289h-139v51h471v-51h-176l-39 -305q-16 -137 -36.5 -222t-55.5 -142t-83 -83t-124 -38q321 -24 344 -324l27 -315q5 -58 10 -91 t16 -63.5t29 -45t46 -22.5t71 -8h71v-51h-125h-38q-29 1 -53.5 0t-45 1.5t-38 5.5t-32 10.5t-26 17.5t-20.5 26.5t-16 37t-13 49t-10 63t-7 78.5l-24 348q-9 130 -84 190t-252 60h-160v-836h221v-51h-551z" />
<glyph unicode="L" horiz-adv-x="1153" d="M104 0v51h160v1659h-160v51h490v-51h-160v-1659h555v363l133 -2l-2 -412h-1016z" />
<glyph unicode="M" horiz-adv-x="1847" d="M104 0v51h160v1659h-160v51h402l409 -1589h7l419 1589h402v-51h-160v-1659h160v-51h-490v51h160v1641h-8l-451 -1692h-161l-439 1692h-12v-1641h180v-51h-418z" />
<glyph unicode="N" horiz-adv-x="1429" d="M72 0v51h159v1659h-159v51h393l651 -1571h4v1520h-159v51h397v-51h-160v-1710l-174 -2l-707 1690h-8v-1637h160v-51h-397z" />
<glyph unicode="O" horiz-adv-x="1417" d="M172 881v34q0 303 51 512q26 105 66 174t101 109t136.5 56t182.5 16t182 -16t136 -56t101 -109t66 -174q49 -229 49 -546q0 -349 -49 -549q-25 -105 -65 -174t-101 -109t-136.5 -56t-182.5 -16t-182.5 16t-137 56t-101.5 109t-65 174q-51 209 -51 515v34zM356 881 q0 -344 31 -537q15 -99 40 -160.5t66 -94.5t90 -44.5t126 -11.5t125.5 11.5t90 44.5t66 94.5t39.5 160.5q31 193 31 537q0 341 -31 534q-15 99 -39.5 160.5t-66 94.5t-90 44.5t-125.5 11.5t-126 -11.5t-90 -44.5t-66 -94.5t-40 -160.5q-31 -193 -31 -534z" />
<glyph unicode="P" horiz-adv-x="1298" d="M104 0v51h160v1659h-160v51h500q28 0 82 1h117.5t101 -8t84.5 -24.5t67 -48.5t49 -80.5t30 -120.5t10 -169q0 -118 -4 -186.5t-19 -138t-42.5 -103t-78.5 -62.5t-123 -39q-65 -9 -158 -8h-20h-266v-723h246v-51h-576zM432 1710l2 -885h246q50 0 87.5 4.5t68 17t50.5 28.5 t35.5 46.5t24 62.5t13.5 85.5t6.5 107.5t1.5 134q0 91 -4 149.5t-17.5 106.5t-33.5 73t-58 42.5t-84 22.5t-117 5h-221z" />
<glyph unicode="Q" horiz-adv-x="1417" d="M172 881v34q0 303 51 512q26 105 66 174t101 109t136.5 56t182.5 16t182 -16t136 -56t101 -109t66 -174q49 -229 49 -546q0 -349 -49 -549q-25 -101 -63 -168.5t-95 -108t-128 -58.5t-171 -20h7q85 0 141 -47q58 -49 67 -151q8 -88 33 -117t96 -29h37v-34h-200 q-65 0 -87 37.5t-30 152.5q-4 45 -14 75.5t-24 50t-42.5 33t-55 20.5t-75.5 16q-154 18 -239.5 96t-127.5 252q-51 209 -51 515v34zM356 881q0 -344 31 -537q15 -99 40 -160.5t66 -94.5t90 -44.5t126 -11.5t125.5 11.5t90 44.5t66 94.5t39.5 160.5q31 193 31 537 q0 341 -31 534q-15 99 -39.5 160.5t-66 94.5t-90 44.5t-125.5 11.5t-126 -11.5t-90 -44.5t-66 -94.5t-40 -160.5q-31 -193 -31 -534z" />
<glyph unicode="R" horiz-adv-x="1443" d="M104 0v51h160v1659h-160v51h654q83 0 147.5 -12.5t108 -32.5t74 -54t47 -66.5t26 -81.5t11.5 -87.5t2 -95.5q0 -183 -77.5 -283t-248.5 -124q22 -2 44.5 -5.5t54.5 -13.5t59.5 -25t56.5 -40.5t50 -58.5t35.5 -82t16.5 -107l15 -313q6 -136 38 -182t134 -46h71v-51h-123 q-136 0 -166 5q-70 10 -98 64q-31 59 -37 218l-14 346q-2 53 -17 95.5t-36 70t-54 47.5t-62.5 30t-70.5 15.5t-68 6.5t-65 1h-176l-2 -848h221v-51h-551zM436 950h219q109 0 173.5 16t103.5 61.5t52 115t13 188.5q0 89 -4 146.5t-18.5 102.5t-34 68.5t-58 38.5t-82.5 19 t-116 4h-248v-760z" />
<glyph unicode="S" horiz-adv-x="1236" d="M125 408v81h164v-81q0 -49 2 -85t9 -76t19.5 -68t33.5 -55.5t50.5 -44t72.5 -27.5t97 -13q15 -1 30 -1q88 0 151 21q73 24 112 75t54.5 116.5t15.5 157.5q0 67 -6.5 117.5t-13.5 88.5t-33 71.5t-43.5 54.5t-67 50.5t-81.5 46.5t-108 55l-18 9q-16 8 -50 24t-54 26 t-53.5 28.5t-54.5 33t-50 38t-47 45t-38 52t-31.5 62.5t-19 72t-7.5 84q0 117 33.5 199t98 128t146 66.5t189.5 20.5q142 0 217 -56t94 -165l12 213h115v-457h-133q-9 215 -75 309t-232 94q-82 0 -136.5 -12t-96.5 -44t-61.5 -91.5t-19.5 -151.5q0 -37 5.5 -69.5t13.5 -58.5 t24.5 -51t30 -43t38.5 -38t41.5 -32t48 -29.5t48.5 -26.5t53 -27l52 -26q132 -68 142 -73q175 -100 246 -243q58 -115 58 -268q0 -248 -124 -352q-125 -105 -415 -105q-86 0 -154.5 15t-114.5 38.5t-80 60t-52.5 72t-29.5 82t-14 82.5t-3 81z" />
<glyph unicode="T" horiz-adv-x="1210" d="M31 1356v405h1149v-405h-133v354h-357v-1659h291v-51h-752v51h291v1659h-356v-354h-133z" />
<glyph unicode="U" horiz-adv-x="1433" d="M51 1710v51h490v-51h-160v-1311q0 -358 369 -358q190 0 284 97t94 278v1294h-219v51h484v-51h-176v-1290q0 -440 -469 -440q-257 0 -397 102t-140 303v1325h-160z" />
<glyph unicode="V" horiz-adv-x="1419" d="M10 1710v51h520v-51h-215l410 -1546l2 2l430 1544h-190v51h442v-51h-182l-471 -1710h-160l-457 1710h-129z" />
<glyph unicode="W" horiz-adv-x="2056" d="M10 1710v51h535v-51h-234l357 -1571h6l307 1092l-123 479h-106v51h516v-51h-217l387 -1571h4l389 1571h-244v51h459v-51h-145l-424 -1710h-183l-280 1100l-312 -1100h-176l-389 1710h-127z" />
<glyph unicode="X" horiz-adv-x="1374" d="M10 0v51h150l432 840l-406 819h-161v51h596v-51h-250l325 -661l338 661h-164v51h416v-51h-168l-381 -743l453 -916h174v-51h-561v51h203l-373 756l-387 -756h196v-51h-432z" />
<glyph unicode="Y" horiz-adv-x="1433" d="M10 1710v51h633v-51h-235l393 -891l391 891h-215v51h446v-51h-157l-437 -993v-666h291v-51h-751v51h290v666l-432 993h-217z" />
<glyph unicode="Z" horiz-adv-x="1202" d="M88 0v51l840 1659h-686v-424h-133l2 475h1003v-51l-827 -1659h688l-2 424h133l-2 -475h-1016z" />
<glyph unicode="[" horiz-adv-x="643" d="M174 -303v2167h356v-52h-211v-2064h211v-51h-356z" />
<glyph unicode="\" horiz-adv-x="708" d="M41 1915h57l518 -2114h-59z" />
<glyph unicode="]" horiz-adv-x="643" d="M113 -252h211v2064h-211v52h356v-2167h-356v51z" />
<glyph unicode="^" horiz-adv-x="1198" d="M248 1079l346 678l346 -678l-43 -20l-303 631l-303 -631z" />
<glyph unicode="_" horiz-adv-x="1165" d="M113 0v84h940v-84h-940z" />
<glyph unicode="a" horiz-adv-x="1042" d="M106 276q0 137 62 198t240 87q76 12 186 12q67 0 100 -2v213q0 209 -184 209q-57 0 -98 -15t-61 -34.5t-31 -49t-12.5 -48.5t-0.5 -43l2 -58h-147l-2 48v16q0 65 22 109q25 50 75 76t108.5 36t138.5 10q81 0 138 -11t105.5 -39.5t72.5 -83t24 -136.5v-623 q0 -53 19.5 -74.5t70.5 -21.5h61v-51h-151q-96 0 -122 24q-25 22 -24 97v12q-59 -145 -276 -145q-82 0 -141.5 17t-92.5 43t-52 66.5t-24.5 77t-5.5 84.5zM260 268q0 -34 2.5 -59t14.5 -59.5t33 -56.5t62 -38t97 -16q107 0 166 74.5t59 201.5v207q-55 6 -110 6 q-62 0 -111 -8q-58 -10 -98.5 -28.5t-62.5 -40t-34 -54.5t-15 -60.5t-3 -68.5z" />
<glyph unicode="b" horiz-adv-x="1138" d="M41 1710v51q122 0 293 21v-162l-2 -780q55 194 307 194q166 0 247 -71t109 -215q23 -122 23 -248q0 -116 -21 -221q-11 -54 -26.5 -94.5t-43.5 -79.5t-67 -64t-98.5 -40t-136.5 -15q-37 0 -67.5 3.5t-72 17t-72 37t-58 68t-40.5 105.5l-8 -217h-123v1710h-143zM334 510 q0 -128 10 -201q5 -37 12 -67t20 -63.5t34 -58t49.5 -45t70.5 -31.5t95 -11q107 0 155.5 50.5t67.5 178.5q16 109 16 248q0 136 -16 248q-19 129 -68 179t-155 50q-64 0 -113 -17.5t-77.5 -42.5t-48 -65t-28 -73.5t-14.5 -79.5q-10 -72 -10 -199z" />
<glyph unicode="c" horiz-adv-x="976" d="M121 512q0 119 16 231q10 59 22.5 99.5t37.5 80t63 62.5t97.5 37t140.5 14q68 0 117 -14.5t76.5 -42t41.5 -55t23 -64.5l8 164h92v-309h-123q0 48 -5 85.5t-20 74t-40.5 60.5t-68.5 39t-101 15q-67 0 -109 -14.5t-61.5 -50t-25.5 -62.5t-12 -85q-2 -19 -3 -29 q-13 -109 -13 -242q0 -126 13 -230q12 -98 20 -125q28 -86 121 -108q37 -8 86 -8q127 0 173 51t46 184v54h131v-48q0 -47 -7 -84.5t-29 -77.5t-59 -66t-102 -43t-153 -17q-87 0 -150.5 14t-102.5 36.5t-64.5 62.5t-37.5 80t-22 100q-16 112 -16 231z" />
<glyph unicode="d" horiz-adv-x="1155" d="M123 494q0 141 20 247q28 145 110 219t247 74q51 0 92 -7t86.5 -26t79.5 -59.5t51 -101.5l-4 782v90h-143v51q120 0 292 21v-121l2 -1497q0 -55 19.5 -85t71.5 -30h61v-51h-152q-21 0 -36 0.5t-28 4t-22 5.5t-16.5 11t-12 13.5t-8 20.5t-5 25t-2.5 33t-1 38.5v47.5v16 q-27 -123 -104.5 -176t-206.5 -53q-92 0 -159.5 20.5t-109 61t-65 89t-37.5 115.5q-20 100 -20 222zM276 498q0 -132 17 -248q19 -118 67.5 -167.5t153.5 -49.5q63 0 111 16t76.5 40t49 61t29.5 70t15 75q12 87 12 203q0 130 -10 202q-6 49 -14.5 85t-28.5 76.5t-49 66 t-78 42.5t-113 17q-108 0 -156 -54.5t-67 -187.5q-15 -105 -15 -247z" />
<glyph unicode="e" horiz-adv-x="1009" d="M121 512q0 98 6 193q7 99 39.5 167t88.5 103t119.5 49t147.5 14q59 0 107.5 -8t96.5 -30.5t81.5 -58.5t56 -96t27.5 -140q2 -28 2 -62.5t-1 -76t-1 -62.5h-617q0 -68 7 -197q9 -143 67.5 -208.5t194.5 -65.5q67 0 109.5 16.5t65.5 55t31.5 88.5t8.5 129h131 q0 -175 -79 -255.5t-267 -80.5q-90 0 -157.5 14t-126 49t-92 103t-40.5 167q-6 95 -6 193zM274 555h484q0 103 -2 156q-1 29 -2.5 48t-7.5 51t-15 54t-26.5 48t-41 41.5t-60 26.5t-81.5 11q-124 0 -178 -65.5t-63 -208.5q-7 -96 -7 -162z" />
<glyph unicode="f" horiz-adv-x="782" d="M57 0v51h164v922h-164v51h164l-2 426q0 171 65 251.5t218 80.5q58 0 100.5 -10t78.5 -35.5t54.5 -73.5t18.5 -119q0 -42 -6 -84h-130q7 56 7 92q0 58 -10.5 97t-30 56.5t-38 23.5t-42.5 6q-37 0 -62 -14.5t-39 -36t-21 -61.5t-9 -75t-2 -92v-432h270v-51h-270v-922h198 v-51h-512z" />
<glyph unicode="g" horiz-adv-x="1036" d="M84 -254q0 91 16 172l154 -18q-16 -73 -16 -154q0 -33 1 -54.5t7 -50.5t16.5 -48t30.5 -39.5t48 -32t70.5 -19.5t96.5 -8q181 0 242 58t61 229q0 74 -13 118t-48.5 71.5t-92 37.5t-151.5 10h-14q-78 0 -136 10q-63 11 -96.5 27.5t-53 42t-24 46.5t-4.5 49q0 60 39 103 t96 52q-108 29 -150 109.5t-42 226.5q1 96 18 159t59.5 108.5t116.5 66t187 20.5q56 0 139.5 -11t95.5 -11q37 2 62.5 24t25.5 54q1 26 -11.5 59t-25.5 53l-12 19l144 12q41 -55 41 -110v-5q-1 -67 -51 -103t-140 -36q62 -40 87.5 -111t27.5 -184q-1 -96 -17.5 -159.5 t-57.5 -110t-114 -68t-184 -22.5q-250 0 -250 -97q0 -52 56 -77t182 -25q116 0 192.5 -10t132 -32t85 -63.5t42.5 -98.5t13 -144q0 -103 -19.5 -165t-73 -101.5t-139 -53.5t-227.5 -14q-231 0 -326.5 67t-95.5 232zM266 686v-6q0 -172 53 -238q54 -67 183 -67q138 0 188 66 q49 63 49 232v13q-2 178 -51 242q-48 63 -182 63h-4q-136 0 -185 -64t-51 -241z" />
<glyph unicode="h" horiz-adv-x="1163" d="M51 0v51h144v1659h-134v51q158 0 283 15v-930q34 90 116.5 140t196.5 50q166 0 237 -73t71 -207v-590q0 -56 19 -85.5t71 -29.5h61v-51h-188q-56 0 -84.5 17t-28.5 73v651q0 33 -1.5 55t-7.5 54t-20 53t-36.5 41.5t-60 30.5t-87.5 10q-109 0 -183.5 -82.5t-74.5 -230.5 v-621h162v-51h-455z" />
<glyph unicode="i" horiz-adv-x="528" d="M57 0v51h144v922h-144v51q130 0 293 20v-993h121v-51h-414zM158 1432q0 59 26 85.5t84 26.5q59 0 86 -27t27 -85t-27 -84.5t-86 -26.5q-58 0 -84 26t-26 85z" />
<glyph unicode="j" horiz-adv-x="546" d="M-39 -502l2 51q54 -8 88 -8q33 0 58.5 5t42 14t27.5 22.5t16.5 30t8.5 36t3 42v46.5v27l-2 1154v55h-144v51q130 0 293 20v-106l2 -1198q0 -146 -61.5 -198t-218.5 -52q-61 0 -115 8zM162 1430q0 59 27 86.5t85 27.5q56 0 83.5 -32.5t27.5 -79.5q0 -58 -27 -84.5 t-84 -26.5q-59 0 -85.5 25.5t-26.5 83.5z" />
<glyph unicode="k" horiz-adv-x="1095" d="M51 0v51h144v1659h-132v51q159 0 281 15v-1223h109q34 0 61 1.5t50 7.5t40 10.5t31 17.5t23.5 21.5t17.5 29.5t13 35t10 44t8 49.5t8 59.5l18 144h-112v51h378v-51h-143l-22 -154q-24 -162 -59.5 -216t-135.5 -66l-2 -2q28 -2 53 -7t57 -18t55.5 -32.5t41.5 -53.5t22 -78 l15 -164q6 -80 23.5 -105.5t76.5 -25.5h43v-51h-111q-96 0 -115 4q-39 10 -54 53q-11 35 -17 111l-14 192q-4 60 -23 88t-71.5 41t-161.5 13h-113v-451h162v-51h-455z" />
<glyph unicode="l" horiz-adv-x="540" d="M41 1710v51q171 0 293 15v-1612q0 -56 19 -85.5t71 -29.5h51v-51h-178q-56 0 -84.5 17t-28.5 73v1622h-143z" />
<glyph unicode="m" horiz-adv-x="1765" d="M57 0v51h144v922h-144v51q165 0 279 14l2 -155l2 -41q33 93 129 143.5t201 50.5q243 0 282 -194q37 92 132.5 143t195.5 51q87 0 145 -19.5t88 -59t42 -87t12 -114.5v-592q0 -55 19 -84t71 -29h61v-51h-188q-56 0 -84.5 17t-28.5 73v653q0 35 -1 55.5t-5.5 53.5t-16 53 t-30 41t-50 31t-73.5 10q-50 0 -99.5 -20.5t-91 -58t-67 -99t-25.5 -135.5v-623h185v-51h-477v51h143v692q0 33 -1.5 55t-7 54t-18.5 53t-33.5 41.5t-55 30.5t-79.5 10q-44 0 -89.5 -20.5t-85 -58t-64.5 -99t-25 -135.5v-623h144v-51h-437z" />
<glyph unicode="n" horiz-adv-x="1169" d="M57 0v51h144v922h-144v51q167 0 281 14l2 -155v-39q35 91 121 141.5t203 50.5q166 0 236.5 -73t70.5 -207v-590q0 -56 19 -85.5t71 -29.5h61v-51h-188q-56 0 -84.5 17t-28.5 73v653q0 33 -1.5 55t-7.5 54t-20 53t-36.5 41.5t-60 30.5t-87.5 10q-109 0 -183.5 -82.5 t-74.5 -230.5v-623h162v-51h-455z" />
<glyph unicode="o" horiz-adv-x="1093" d="M123 512q0 119 16 231q12 71 36 122t70 91t121 60t181 20q105 0 179 -19.5t120 -59.5t71 -91t37 -123q17 -99 17 -231t-17 -231q-12 -72 -35.5 -122.5t-68.5 -91t-120.5 -60t-182.5 -19.5t-182.5 19.5t-121 60t-69 91t-35.5 122.5q-16 112 -16 231zM276 512 q0 -82 15 -236q5 -43 12 -73.5t24 -64.5t43.5 -55t71 -34.5t105.5 -13.5t105.5 13.5t71 34.5t43.5 55t24 64.5t12 73.5q14 115 14 236t-14 236q-5 43 -12 73.5t-24 64.5t-43.5 55t-71 34.5t-105.5 13.5t-105.5 -13.5t-71 -34.5t-43.5 -55t-24 -64.5t-12 -73.5 q-15 -154 -15 -236z" />
<glyph unicode="p" horiz-adv-x="1153" d="M51 969v51q167 0 281 14l4 -227q45 227 303 227q94 0 160.5 -19.5t107.5 -59t64 -89.5t37 -121q22 -110 22 -225q0 -135 -20 -241q-28 -145 -111.5 -219t-249.5 -74q-55 0 -98 7.5t-85 26t-73.5 55.5t-50.5 91v-658h-147v1461h-144zM346 520q0 -145 8 -203 q6 -46 14.5 -80t28 -75t48 -67t77.5 -44t113 -18q113 0 159.5 52.5t65.5 186.5q14 98 14 248q0 139 -16 248q-19 121 -68 170t-155 49q-59 0 -105 -15t-75 -39t-50 -60t-31 -71t-16 -79q-12 -87 -12 -203z" />
<glyph unicode="q" horiz-adv-x="1124" d="M123 524q0 111 22 221q14 68 35.5 116t62.5 89.5t109 62.5t164 21q253 0 301 -227l17 217h122v-1516h-149l4 658q-41 -106 -116 -142t-193 -36q-166 0 -247.5 72t-109.5 216q-22 117 -22 248zM279 520q0 -150 14 -248q19 -135 68 -187t155 -52q54 0 97 11t71.5 32.5 t49 46.5t33 60t19 65t11.5 69q10 73 10 203q0 126 -10 199q-5 41 -14 74.5t-29.5 71.5t-49.5 63t-77.5 42t-110.5 17q-106 0 -154 -49t-67 -170q-16 -109 -16 -248z" />
<glyph unicode="r" horiz-adv-x="858" d="M57 0v51h144v922h-144v51q113 0 256 20l6 -225q23 108 87 162.5t157 54.5q136 0 190 -46t54 -167v-112l-123 2v96q0 36 -2 59.5t-9 48.5t-19.5 39t-35.5 23.5t-55 9.5q-111 0 -162 -82t-51 -278v-578h217v-51h-510z" />
<glyph unicode="s" horiz-adv-x="931" d="M100 276v48h140v-43q0 -139 55 -192.5t176 -53.5q126 0 188 53.5t62 171.5q0 38 -8 64t-33.5 56t-80.5 55.5t-142 49.5q-73 19 -116.5 34.5t-88 39.5t-67.5 53.5t-37.5 74t-14.5 104.5q0 32 6.5 62.5t26 65.5t51.5 61t88 43t129 17q189 0 234 -157l4 145h98v-274h-127 q0 107 -51 173t-156 66q-106 0 -153 -37t-47 -120q0 -29 7.5 -53t16.5 -41.5t30.5 -33t36 -25t47.5 -20.5t50.5 -16.5t59.5 -16.5t61 -16q158 -43 221 -115t63 -210q0 -135 -85 -218t-273 -83q-95 0 -163.5 16t-108 41.5t-62.5 65t-30 77.5t-7 88z" />
<glyph unicode="t" horiz-adv-x="757" d="M20 973v51h144v383q92 0 149 14v-397h271v-51h-271v-680v-23v-50.5t1.5 -44.5t5 -42.5t9 -35t15 -30.5t22.5 -20.5t31.5 -15t42.5 -4.5q119 0 119 213v49h107v-86q0 -66 -18 -111.5t-52.5 -69t-74.5 -33t-93 -9.5q-46 0 -81.5 3.5t-63 13t-46.5 20.5t-32.5 31.5 t-21.5 40.5t-12 52t-5.5 62.5t-1.5 75.5v694h-144z" />
<glyph unicode="u" horiz-adv-x="1177" d="M47 973v51q179 0 293 14v-755q0 -48 6 -83.5t25.5 -76.5t64.5 -63.5t113 -22.5q109 0 181.5 93t72.5 249v594h-144v51q179 0 293 14v-893q0 -59 17 -76.5t73 -17.5h54v-51h-158q-41 0 -64 4t-39 15t-20.5 30.5t-8.5 50.5q-2 14 -1 32q0 20 2 44q-68 -188 -324 -188 q-152 0 -222.5 70.5t-70.5 230.5v684h-143z" />
<glyph unicode="v" horiz-adv-x="1030" d="M31 973v51h432v-51h-154l256 -873l248 873h-147v51h333v-51h-125l-280 -973h-150l-290 973h-123z" />
<glyph unicode="w" horiz-adv-x="1429" d="M10 973v51h412v-51h-172l239 -867l199 713l-41 154h-108v51h434v-51h-176l237 -869l238 869h-125v51h272v-51h-88l-262 -973h-158l-194 713l-193 -713h-153l-269 973h-92z" />
<glyph unicode="x" horiz-adv-x="1054" d="M10 0v51h127l301 484l-276 444h-135v45h444v-45h-133l215 -348l219 348h-110v45h348v-45h-170l-252 -404l323 -524h133v-51h-397v51h92l-266 428l-268 -428h151v-51h-346z" />
<glyph unicode="y" horiz-adv-x="1112" d="M47 973v51q169 0 283 14v-747q0 -37 3 -66.5t14.5 -64t30.5 -57.5t54 -38.5t82 -15.5q279 0 279 422v502h-131v51q168 0 282 14v-155l-2 -965q0 -240 -88 -335t-319 -95q-81 0 -143 10.5t-103 31.5t-68 46t-41 60t-19 67.5t-5 73.5v47h137v-33q0 -146 53.5 -201 t185.5 -55q52 0 92.5 9t69 24t48.5 41t32 54t18.5 70.5t8.5 82.5t2 96v301q-14 -54 -44 -94.5t-63.5 -62t-75.5 -35t-73.5 -17.5t-63.5 -4q-89 0 -151 23.5t-94 67.5t-45 93t-13 113v676h-133z" />
<glyph unicode="z" horiz-adv-x="960" d="M125 717v307h719v-66l-553 -905h454v256h111v-309h-729v61l553 910h-444v-254h-111z" />
<glyph unicode="{" horiz-adv-x="729" d="M113 565v53h26q73 0 98 29.5t25 120.5v717q0 137 67.5 206.5t231.5 69.5h55v-51h-51q-73 0 -115 -53.5t-42 -153.5v-719q0 -183 -175 -192q175 -9 175 -193v-673q0 -114 41.5 -171t115.5 -57h51v-51h-55q-164 0 -231.5 70t-67.5 207v692q0 91 -25 120t-98 29h-26z" />
<glyph unicode="}" horiz-adv-x="729" d="M113 -502h51q74 0 116 57t42 171v673q0 184 174 193q-174 9 -174 192v719q0 100 -42.5 153.5t-115.5 53.5h-51v51h55q164 0 231.5 -69.5t67.5 -206.5v-717q0 -91 25 -120.5t98 -29.5h26v-53h-26q-73 0 -98 -29t-25 -120v-692q0 -137 -67.5 -207t-231.5 -70h-55v51z" />
<glyph unicode="&#xa3;" horiz-adv-x="1503" d="M92 162q0 56 24 97t61 60.5t70.5 28t63.5 8.5q78 0 138 -25t131 -73q19 74 16 156q-2 70 -18.5 150.5t-31.5 130.5t-48.5 147.5t-44.5 132.5h-224v49h207q-53 171 -53 313q0 123 19.5 202.5t70 136.5t137 81.5t219.5 24.5q68 0 118 -4.5t92 -17t69.5 -29.5t49 -48.5 t33 -66.5t18.5 -91.5t9 -116.5t1 -146h-152q0 216 -3 255q-9 122 -62 166q-52 44 -173 43q-154 -1 -214 -72t-60 -241q0 -87 20.5 -175t61.5 -214h358v-49h-344q76 -247 76 -400q0 -197 -82 -358q138 -84 275 -84q47 0 90 7.5t88 25t81 50t65 78.5t45 115.5t16 155.5h43 q6 -149 -16 -258.5t-60 -172.5t-98.5 -100.5t-119 -49t-134.5 -11.5q-99 0 -171 41.5t-153 118.5q-118 -158 -285 -158q-94 0 -156.5 46.5t-62.5 140.5zM154 162q0 -67 43.5 -99t113.5 -32q76 0 138 38t100 109q-64 60 -117.5 91.5t-120.5 31.5q-57 0 -107 -34.5t-50 -104.5 z" />
<glyph unicode="&#xa5;" horiz-adv-x="1433" d="M10 1710v51h633v-51h-235l393 -891l391 891h-215v51h446v-51h-157l-314 -715h250v-51h-272l-101 -227v-23h373v-51h-373v-592h291v-51h-751v51h290v592h-399v51h399v23l-98 227h-301v51h279l-312 715h-217z" />
<glyph unicode="&#xa9;" horiz-adv-x="2078" d="M113 883q0 168 47 313.5t132 253t200 184.5t254 115.5t292 38.5q154 0 293 -38.5t255 -115.5t201 -184.5t132 -253t47 -313.5t-47 -314t-132 -254t-201 -185t-255 -116t-293 -39q-153 0 -292 39t-254 116t-200 185t-132 254t-47 314zM176 881q0 -204 67 -368.5 t184 -270.5t273 -162.5t338 -56.5q145 0 275 35.5t238 106.5t186.5 172.5t122 240.5t43.5 303q0 204 -67 368.5t-184.5 271t-274.5 163.5t-339 57t-338 -57t-273 -163.5t-184 -271t-67 -368.5zM565 872q0 121 13.5 209.5t46.5 160.5t88.5 116t139 67t198.5 23q41 0 77 -5 t62 -10.5t49.5 -19t38.5 -22t30 -28t21.5 -28t16.5 -31.5t12 -29l10 -30l8 195h76v-348h-109l-4 47q-4 48 -12.5 85t-28.5 73t-50.5 59.5t-80.5 38t-116 14.5q-64 0 -114 -14t-85.5 -38.5t-61.5 -64.5t-41.5 -84.5t-24.5 -106t-12 -121t-3 -138.5q0 -92 6.5 -158 t27.5 -132.5t57.5 -107.5t99.5 -66.5t151 -25.5q156 0 229.5 83t73.5 224v25h104v-37q0 -51 -11.5 -96.5t-41 -89.5t-74 -75.5t-116.5 -51t-164 -19.5q-121 0 -206.5 23t-140 65t-85.5 113t-42.5 154t-11.5 202z" />
<glyph unicode="&#xab;" horiz-adv-x="919" d="M115 539q71 72 109 114t80 101t69.5 122.5t50.5 147.5h35q-36 -166 -77 -262.5t-126 -222.5q85 -128 126 -225t77 -263h-35q-41 148 -101.5 243t-207.5 245zM463 539q71 72 109 114t80 101t69.5 122.5t50.5 147.5h35q-36 -166 -77 -262.5t-126 -222.5q85 -128 126 -225 t77 -263h-35q-23 84 -50.5 147.5t-69.5 123t-80 102t-109 115.5z" />
<glyph unicode="&#xad;" horiz-adv-x="1165" d="M113 651v82h940v-82h-940z" />
<glyph unicode="&#xae;" horiz-adv-x="2201" d="M174 883q0 210 73 382.5t199 286t294 175t360 61.5q154 0 293 -38.5t255 -115.5t201 -184.5t132 -253t47 -313.5t-47 -314t-132 -254t-201 -185t-255 -116t-293 -39q-192 0 -360 62t-294 176t-199 287t-73 383zM227 883q0 -204 68.5 -370t187.5 -274t277.5 -166.5 t339.5 -58.5q182 0 340.5 58.5t277.5 166.5t187.5 274t68.5 370q0 164 -44.5 304t-124 242.5t-189 175.5t-240.5 109.5t-276 36.5t-275.5 -36.5t-239.5 -109.5t-189 -175.5t-124.5 -242.5t-44.5 -304zM694 322v34h103v1061h-103v35h420q62 0 110 -8t80 -19.5t54.5 -32.5 t34.5 -40t18.5 -48.5t8 -51.5t1.5 -56q0 -132 -51.5 -197.5t-171.5 -85.5v-2q17 1 37 -1t52 -13.5t57 -32t45.5 -63t25.5 -99.5l17 -202q8 -92 27.5 -125t82.5 -33h47v-20h-80h-25q-34 0 -48.5 0.5t-36 3t-30 10t-20 20t-16 33t-9 48.5t-7.5 69l-17 221q-13 172 -280 172 h-113l-2 -543h144v-34h-355zM907 932h142q60 0 101.5 4.5t71 17.5t46 29t26 46.5t12.5 62.5t3 84q0 57 -2 89.5t-11 63.5t-23.5 45t-43 25.5t-66 14.5t-96.5 3h-160v-485z" />
<glyph unicode="&#xb4;" horiz-adv-x="524" d="M129 1276q39 64 62 106t51.5 97t52.5 100q15 30 30 44.5t40 10.5q19 -3 30 -17t11 -32q0 -21 -18.5 -47t-65.5 -76q-79 -83 -166 -200z" />
<glyph unicode="&#xbb;" horiz-adv-x="919" d="M115 51q36 167 77 264t125 224q-85 126 -125.5 222t-76.5 263h35q23 -84 50.5 -147.5t69.5 -122.5t80 -101t109 -114q-71 -73 -109 -115.5t-80 -102t-69.5 -123t-50.5 -147.5h-35zM463 51q36 166 77 263t126 225q-85 126 -126 222.5t-77 262.5h35q23 -84 50.5 -147.5 t69.5 -122.5t80 -101t109 -114q-147 -150 -207.5 -245t-101.5 -243h-35z" />
<glyph unicode="&#x400;" d="M104 0v51h160v1659h-160v51h1029v-401h-134v350h-565v-762h428v189h88v-459h-88v209h-428v-836h574v357h133v-408h-1037zM403 2300q0 32 20.5 54t55.5 22q43 3 101 -58q194 -211 338 -340l-25 -26q-90 63 -313 190q-102 58 -139.5 89t-37.5 69z" />
<glyph unicode="&#x401;" d="M104 0v51h160v1659h-160v51h1029v-401h-134v350h-565v-762h428v189h88v-459h-88v209h-428v-836h574v357h133v-408h-1037zM391 2079q0 112 105 112q102 0 102 -112q0 -58 -25 -84.5t-77 -26.5q-53 0 -79 26.5t-26 84.5zM719 2079q0 58 25.5 85t78.5 27q103 0 103 -112 q0 -111 -103 -111q-53 0 -78.5 26.5t-25.5 84.5z" />
<glyph unicode="&#x402;" horiz-adv-x="1683" d="M96 1356v405h1149v-405h-133v354h-356v-889q47 102 159.5 159.5t229.5 57.5q102 0 171.5 -24t107.5 -70.5t53.5 -105t15.5 -138.5l-4 -770q0 -237 -124.5 -360t-328.5 -123q-50 0 -112 8l4 41q42 -12 106 -12q66 2 114.5 23t80 57t51 92.5t27 122t8.5 151.5l4 777 q0 40 -3 70.5t-16.5 71t-37.5 67.5t-70 46t-109 19q-68 0 -142.5 -37t-129.5 -111t-55 -163v-619h200v-51h-600v51h230v1659h-357v-354h-133z" />
<glyph unicode="&#x403;" horiz-adv-x="1153" d="M104 0v51h160v1659h-160v51h1016l2 -473l-133 -2v424h-555v-1659h180v-51h-510zM496 1978q29 26 60.5 56t53.5 51.5t60 60.5t51.5 53.5t59 62t53.5 56.5q58 61 100 58q36 -3 56 -24t20 -52q0 -38 -36.5 -67.5t-139.5 -88.5q-214 -121 -314 -192z" />
<glyph unicode="&#x408;" horiz-adv-x="995" d="M41 344l145 2l2 -121q1 -54 21 -92t54.5 -56.5t69 -26t75.5 -7.5q26 0 50 3.5t55.5 16.5t54 34.5t38 62.5t15.5 96v1454h-267v51h598v-51h-161v-1417q0 -67 -20.5 -120.5t-56 -89t-84.5 -58.5t-103.5 -33t-116.5 -10q-48 0 -91.5 5t-96 21t-90.5 42t-63.5 73t-25.5 110z " />
<glyph unicode="&#x409;" horiz-adv-x="2039" d="M10 0v51h115l831 1710h369v-51h-186v-666h282q106 1 178.5 -10.5t122.5 -44t78 -70.5t43 -113.5t19 -148.5t4 -198q0 -98 -13 -171t-29.5 -122.5t-58 -82t-70.5 -50t-96.5 -25.5t-108 -9t-129.5 -1h-12.5h-11h-12.5l-498 2v51h156v1575l-8 4l-764 -1579h178v-51h-379z M1139 993l2 -942l233 -2q68 -1 117 8t84.5 32t57 54.5t34 83.5t17 111t4.5 145q0 79 -1.5 132.5t-6.5 108t-13.5 89.5t-23.5 68t-36 52t-50.5 34t-67.5 20.5t-88 5.5h-262z" />
<glyph unicode="&#x40a;" horiz-adv-x="2125" d="M104 0v51h160v1659h-160v51h490v-51h-160v-758h649v758h-159v51h506v-51h-191v-666h268q106 1 178.5 -10.5t122.5 -44t78 -70.5t43 -113.5t19 -148.5t4 -198q0 -97 -13 -170t-29.5 -122.5t-57.5 -82t-70 -49.5t-96 -25t-106.5 -9t-129.5 -1h-39h-487v51h159v832h-649 v-832h160v-51h-490zM1239 51h221q69 0 117 7.5t84 28.5t57 50.5t34 81t17.5 112.5t4.5 152q0 79 -1.5 132.5t-6.5 108t-13.5 89.5t-23.5 68t-36 52t-50.5 34t-67.5 20.5t-88 5.5h-248v-942z" />
<glyph unicode="&#x40b;" horiz-adv-x="1769" d="M96 1352v409h1149v-409h-133v358h-356v-883q41 97 154 154t235 57q108 0 179 -19.5t107 -59.5t49 -87t13 -116l2 -606q0 -99 88 -99h57v-51h-180q-28 0 -44 1.5t-36.5 7.5t-31 18.5t-18 36t-7.5 57.5v559q0 51 -2.5 85t-16 78.5t-38 71t-71 45.5t-112.5 19 q-51 0 -106.5 -19.5t-105.5 -55.5t-82.5 -97t-32.5 -135v-621l239 -2v-51l-700 2v51h291v1659h-357v-358h-133z" />
<glyph unicode="&#x40c;" horiz-adv-x="1388" d="M104 0v51h160v1659h-160v51h523v-51h-193v-762h156q48 0 84.5 5t66.5 19.5t51 31t38.5 48.5t28.5 63t21.5 83.5t17 100t15.5 122.5l33 289h-139v51h471v-51h-176l-39 -305q-16 -137 -36.5 -222t-55.5 -142t-83 -83t-124 -38q321 -24 344 -324l27 -315q5 -58 10 -91 t16 -63.5t29 -45t46 -22.5t71 -8h71v-51h-125h-38q-29 1 -53.5 0t-45 1.5t-38 5.5t-32 10.5t-26 17.5t-20.5 26.5t-16 37t-13 49t-10 63t-7 78.5l-24 348q-9 130 -84 190t-252 60h-160v-836h221v-51h-551zM467 1978q29 26 60.5 56t53.5 51.5t60 60.5t51.5 53.5t59 62 t53.5 56.5q58 61 100 58q36 -3 56 -24t20 -52q0 -38 -36.5 -67.5t-139.5 -88.5q-209 -118 -313 -192z" />
<glyph unicode="&#x40d;" horiz-adv-x="1523" d="M104 1710v51h476v-51h-162v-1536h6l602 1587h393v-51h-162v-1659h162v-51h-491v51h159v1645h-4l-643 -1696h-192v1710h-144zM498 2300q0 32 20 54t55 22q43 3 101 -58q194 -211 338 -340l-25 -26q-90 63 -313 190q-101 58 -138.5 89t-37.5 69z" />
<glyph unicode="&#x40f;" horiz-adv-x="1581" d="M104 0v51h160v1659h-160v51h492v-51h-162v-1659h649v1659h-159v51h491v-51h-162v-1659h222v-51h-621v-414h-145v414h-605z" />
<glyph unicode="&#x410;" horiz-adv-x="1300" d="M10 0v51h127l428 1716h187l409 -1716h129v-51h-522v51h215l-125 547h-506l-137 -547h184v-51h-389zM369 659h475l-226 981h-6z" />
<glyph unicode="&#x411;" horiz-adv-x="1300" d="M104 0v51h160v1659h-160v51h1012l2 -473h-133v422h-551v-663h268q63 0 114 -4t93 -14.5t73.5 -23.5t56.5 -37t42 -47.5t29.5 -63t19.5 -75.5t11 -91.5t5 -105.5t1 -124q0 -98 -13 -171t-29.5 -122.5t-58 -82t-70.5 -50t-96.5 -25.5t-108 -9t-129.5 -1h-36h-502zM434 51 h221q83 0 136.5 13t90 40t55 81t25.5 122t7 178q0 66 -1 112.5t-4 95t-7.5 81t-13 65t-19.5 53t-27.5 40t-37 30t-47.5 19t-58.5 11.5t-71.5 3h-248v-944z" />
<glyph unicode="&#x412;" horiz-adv-x="1302" d="M104 0v51h160v1659h-160v51h588q85 0 150 -9.5t111.5 -25.5t78.5 -45t51.5 -60.5t29.5 -80t13.5 -95t3.5 -114.5q0 -57 -6 -103.5t-23.5 -95t-46 -83t-77.5 -60.5t-115 -35q95 -13 152 -39t89.5 -80.5t43 -127.5t10.5 -195q0 -61 -1.5 -103t-6.5 -91.5t-14.5 -82.5 t-25.5 -69.5t-39 -59.5t-56 -45t-76.5 -34t-99.5 -19.5t-125 -7.5h-609zM434 51h258q56 0 98.5 9t73 24.5t51.5 45.5t33.5 62.5t19.5 85.5t9 104.5t2 129.5q0 80 -3.5 131t-14.5 101t-31.5 78.5t-55.5 51.5t-86 32t-122 9h-232v-864zM434 967h232q89 0 146 20.5t88 68.5 t42.5 111.5t11.5 163.5q0 63 -1 93.5t-6.5 79.5t-16.5 72.5t-32.5 54.5t-54 44.5t-80.5 24t-112 10.5h-217v-743z" />
<glyph unicode="&#x413;" horiz-adv-x="1153" d="M104 0v51h160v1659h-160v51h1016l2 -473l-133 -2v424h-555v-1659h180v-51h-510z" />
<glyph unicode="&#x414;" horiz-adv-x="1458" d="M10 51h197l463 1710h172l383 -1710h223v-463h-127l-10 412h-1170l-8 -412h-123v463zM289 51h758l-334 1563h-4z" />
<glyph unicode="&#x415;" d="M104 0v51h160v1659h-160v51h1029v-401h-134v350h-565v-762h428v189h88v-459h-88v209h-428v-836h574v357h133v-408h-1037z" />
<glyph unicode="&#x416;" horiz-adv-x="2011" d="M10 0v49h72q52 0 85 13.5t51 46t25.5 70t12.5 102.5l25 315q23 298 346 322l-2 2q-60 9 -101 28t-73 52t-53.5 89.5t-37 130.5t-28.5 185l-41 305h-178v51h479v-51h-148l37 -289q8 -63 13 -102t13 -86.5t14.5 -75t17 -61t21.5 -51.5t26.5 -38.5t33 -30t41 -19t50.5 -12.5 t61 -3h154v768h-205v51h567v-51h-205v-768h156q34 0 61 3t50.5 12.5t41 19t33 30t26.5 38.5t21.5 51.5t17 61t14.5 75t13 86.5t13 102l37 289h-148v51h479v-51h-178l-41 -305q-13 -111 -28.5 -185t-37 -130.5t-53.5 -89.5t-73 -52t-101 -28l-2 -2q324 -24 347 -322l24 -315 q5 -65 12.5 -102.5t25.5 -70t51 -46t85 -13.5h72v-49h-125q-134 0 -163 4q-67 11 -95 63q-30 57 -41 222l-27 346q-9 132 -78.5 194t-226.5 62h-162v-840h222v-51h-600v51h221v840h-160q-157 0 -226.5 -62t-78.5 -194l-27 -346q-4 -50 -9 -86.5t-11.5 -67t-15 -50.5 t-19.5 -36.5t-25.5 -24.5t-32.5 -14.5t-40 -7t-49 -2.5t-58 0h-39h-125z" />
<glyph unicode="&#x417;" horiz-adv-x="1187" d="M109 414v82h145v-80q0 -77 4.5 -128.5t20 -104.5t43.5 -84t76.5 -50.5t117.5 -19.5q62 0 109 9.5t81 25.5t57.5 45.5t37.5 61.5t22 81.5t10.5 97.5t2.5 117q0 116 -10 188.5t-39 127.5t-81.5 78.5t-136.5 23.5h-157v51h157q62 0 107 20t71.5 53.5t42 88.5t20.5 112.5 t5 137.5q0 105 -9 170t-35.5 115t-76 71.5t-127.5 21.5q-149 0 -212 -96t-74 -311h-131v457h108l14 -197q12 56 43 96.5t64 60.5t75.5 31t64.5 13t44 2q128 0 209 -22.5t130.5 -78t69 -138.5t19.5 -214q0 -193 -58.5 -295t-205.5 -129q63 -9 109.5 -27.5t78 -49t51.5 -66 t30.5 -87.5t14 -104t3.5 -125q0 -257 -113 -361.5t-387 -102.5q-77 0 -138.5 15t-103 38.5t-72 59.5t-47.5 71.5t-27 82t-13.5 83t-3.5 82.5z" />
<glyph unicode="&#x418;" horiz-adv-x="1523" d="M104 1710v51h476v-51h-162v-1536h6l602 1587h393v-51h-162v-1659h162v-51h-491v51h159v1645h-4l-643 -1696h-192v1710h-144z" />
<glyph unicode="&#x419;" horiz-adv-x="1523" d="M104 1710v51h476v-51h-162v-1536h6l602 1587h393v-51h-162v-1659h162v-51h-491v51h159v1645h-4l-643 -1696h-192v1710h-144zM537 2046q0 45 28.5 73.5t67.5 28.5q42 0 69 -25t27 -67q0 -37 -24 -62t-60 -30q54 -35 113 -35q93 0 156.5 57.5t66.5 137.5h37 q-3 -88 -73.5 -156.5t-188.5 -71.5q-82 -2 -150.5 41.5t-68.5 108.5z" />
<glyph unicode="&#x41a;" horiz-adv-x="1388" d="M104 0v51h160v1659h-160v51h523v-51h-193v-762h156q48 0 84.5 5t66.5 19.5t51 31t38.5 48.5t28.5 63t21.5 83.5t17 100t15.5 122.5l33 289h-139v51h471v-51h-176l-39 -305q-16 -137 -36.5 -222t-55.5 -142t-83 -83t-124 -38q321 -24 344 -324l27 -315q5 -58 10 -91 t16 -63.5t29 -45t46 -22.5t71 -8h71v-51h-125h-38q-29 1 -53.5 0t-45 1.5t-38 5.5t-32 10.5t-26 17.5t-20.5 26.5t-16 37t-13 49t-10 63t-7 78.5l-24 348q-9 130 -84 190t-252 60h-160v-836h221v-51h-551z" />
<glyph unicode="&#x41b;" horiz-adv-x="1271" d="M10 0v51h115l442 1710h174l396 -1710h125v-51h-523v51h217l-344 1563h-6l-399 -1563h172v-51h-369z" />
<glyph unicode="&#x41c;" horiz-adv-x="1847" d="M104 0v51h160v1659h-160v51h402l409 -1589h7l419 1589h402v-51h-160v-1659h160v-51h-490v51h160v1641h-8l-451 -1692h-161l-439 1692h-12v-1641h180v-51h-418z" />
<glyph unicode="&#x41d;" horiz-adv-x="1517" d="M104 0v51h160v1659h-160v51h490v-51h-160v-768h649v768h-159v51h489v-51h-160v-1659h160v-51h-489v51h159v821h-649v-821h160v-51h-490z" />
<glyph unicode="&#x41e;" horiz-adv-x="1417" d="M172 881q-3 325 51 546q26 105 66 174t101 109t136.5 56t182.5 16t182 -16t136 -56t101 -109t66 -174q49 -229 49 -546q0 -349 -49 -549q-25 -105 -65 -174t-101 -109t-136.5 -56t-182.5 -16t-182.5 16t-137 56t-101.5 109t-65 174q-54 221 -51 549zM356 881 q0 -344 31 -537q15 -99 40 -160.5t66 -94.5t90 -44.5t126 -11.5t125.5 11.5t90 44.5t66 94.5t39.5 160.5q31 193 31 537q0 341 -31 534q-15 99 -39.5 160.5t-66 94.5t-90 44.5t-125.5 11.5t-126 -11.5t-90 -44.5t-66 -94.5t-40 -160.5q-31 -193 -31 -534z" />
<glyph unicode="&#x41f;" horiz-adv-x="1499" d="M104 0v51h160v1659h-160v51h1291v-51h-162v-1659h162v-51h-492v51h160v1659h-629v-1659h162v-51h-492z" />
<glyph unicode="&#x420;" horiz-adv-x="1298" d="M104 0v51h160v1659h-160v51h500q28 0 82 1h117.5t101 -8t84.5 -24.5t67 -48.5t49 -80.5t30 -120.5t10 -169q0 -118 -4 -186.5t-19 -138t-42.5 -103t-78.5 -62.5t-123 -38.5t-178 -8.5h-266v-723h246v-51h-576zM432 1710l2 -885h246q50 0 87.5 4.5t68 17t50.5 28.5 t35.5 46.5t24 62.5t13.5 85.5t6.5 107.5t1.5 134q0 91 -4 149.5t-17.5 106.5t-33.5 73t-58 42.5t-84 22.5t-117 5h-221z" />
<glyph unicode="&#x421;" horiz-adv-x="1263" d="M174 856q0 340 49 557q46 208 150.5 287.5t314.5 79.5q268 0 326 -189l10 181h115v-457h-133q-6 227 -74 315t-246 88q-152 0 -213.5 -65.5t-89.5 -253.5q-31 -227 -31 -588q0 -323 31 -481q13 -67 29 -114.5t39 -79.5t46 -51t60.5 -28.5t72 -12.5t89.5 -3q43 0 77.5 4.5 t61 12.5t47 23t35 30.5t24 41t15.5 49.5t9 60.5t4 68.5t1 79v82h164v-82q0 -50 -6.5 -95t-23 -96t-48.5 -92t-78.5 -75t-118.5 -53t-163 -19q-45 0 -73.5 1t-68.5 4.5t-66.5 10t-60 19t-57 30.5t-50 44.5t-46 61t-38.5 81t-34 102.5q-51 197 -51 522z" />
<glyph unicode="&#x422;" horiz-adv-x="1210" d="M31 1356v405h1149v-405h-133v354h-357v-1659h291v-51h-752v51h291v1659h-356v-354h-133z" />
<glyph unicode="&#x423;" horiz-adv-x="1310" d="M72 1710v51h327v-708q0 -351 238 -351q172 0 244.5 106.5t72.5 311.5v590h-166v51h336l-2 -1323q0 -244 -114 -348t-357 -104q-416 0 -420 350v59h140v-55q0 -80 12 -132.5t43 -91.5t86.5 -57t140.5 -18q49 0 90 7.5t71 21.5t54 34t39 44.5t26.5 53t16.5 59.5t8.5 64 t3.5 67.5t1 69t0 68.5l2 351h-2q-37 -127 -118 -181.5t-235 -54.5q-103 0 -179 27.5t-119 76t-63 108.5t-20 132v721h-157z" />
<glyph unicode="&#x424;" horiz-adv-x="1865" d="M174 883q0 128 11 281t28 222q18 65 39 112.5t54 91.5t79.5 73t112 51.5t153.5 34t203 14.5v195h-160v51h480v-51h-162v-195q115 -3 199.5 -13.5t161.5 -36t129.5 -67t91 -106.5t59.5 -154q19 -81 29 -242t10 -310q-8 -346 -41 -455q-28 -93 -67.5 -158t-90.5 -107 t-125 -66t-156.5 -34t-199.5 -12v-250h162v-51h-480v51h160v250q-122 3 -207 13.5t-158 35t-122.5 67t-87 106.5t-64.5 155q-37 133 -41 504zM346 899q4 -341 31 -516q14 -83 41 -138t80.5 -97t140 -63.5t215.5 -25.5v1649q-111 -3 -186 -15.5t-126 -33t-83 -59.5 t-49.5 -84.5t-32.5 -118.5t-23 -253.5t-8 -244.5zM1012 59q129 4 215.5 25.5t140 63.5t80.5 97t41 138q24 142 31 487q0 377 -31 527q-12 61 -25.5 101.5t-37 77.5t-56 58.5t-83 38.5t-116.5 24.5t-159 10.5v-1649z" />
<glyph unicode="&#x425;" horiz-adv-x="1374" d="M10 0v51h150l432 840l-406 819h-161v51h596v-51h-250l325 -661l338 661h-164v51h416v-51h-168l-381 -743l453 -916h174v-51h-561v51h203l-373 756l-387 -756h196v-51h-432z" />
<glyph unicode="&#x426;" horiz-adv-x="1560" d="M104 0v51h160v1659h-160v51h492v-51h-162v-1659h629v1659h-160v51h492v-51h-162v-1659h223v-463l-119 -2l-12 414h-1221z" />
<glyph unicode="&#x427;" horiz-adv-x="1329" d="M10 1710v51h484v-51h-154l2 -588q0 -172 55 -248.5t176 -76.5q122 0 193.5 31.5t128.5 86.5v795h-205v51h535v-51h-160v-1659h160v-51h-551v51h221v787q-44 -33 -134.5 -65t-195.5 -32q-87 0 -154 19t-123 64t-86 128t-30 201l-2 557h-160z" />
<glyph unicode="&#x428;" horiz-adv-x="2129" d="M104 0v51h160v1659h-160v51h492v-51h-162v-1659h545v1659h-160v51h492v-51h-162v-1659h545v1659h-160v51h491v-51h-161v-1659h161v-51h-1921z" />
<glyph unicode="&#x429;" horiz-adv-x="2185" d="M104 0v51h160v1659h-160v51h492v-51h-162v-1659h545v1659h-160v51h492v-51h-162v-1659h545v1659h-160v51h491v-51h-161v-1659h221v-463l-119 -2l-12 414h-1850z" />
<glyph unicode="&#x42a;" horiz-adv-x="1513" d="M31 1319v442h786v-51h-190v-663h268q63 0 114 -4t93 -14.5t73.5 -23.5t56.5 -37t42 -47.5t29 -63t19 -75t11 -91.5t5 -106t1 -124q0 -98 -13 -171t-29.5 -122.5t-57.5 -82t-70.5 -50t-96.5 -25.5t-107.5 -9t-129.5 -1h-12.5h-11h-12.5h-502v51h160v1659h-295l2 -389z M627 51h221q82 0 136.5 15t90 43.5t54 83.5t25.5 121.5t7 170.5q0 79 -1.5 132.5t-6.5 108t-13.5 89.5t-23.5 68t-36 52t-50.5 34t-67.5 20.5t-88 5.5h-247v-944z" />
<glyph unicode="&#x42b;" horiz-adv-x="1753" d="M104 0v51h160v1659h-160v51h519v-51h-189v-663h268q63 0 114 -4t93 -14.5t73.5 -23.5t56.5 -37t42 -47.5t29.5 -63t19.5 -75.5t11 -91.5t5 -105.5t1 -124q0 -98 -13 -171t-29.5 -122.5t-58 -82t-70.5 -50t-96.5 -25.5t-108 -9t-129.5 -1h-36h-502zM434 51h221 q83 0 136.5 13t90 40t55 81t25.5 122t7 178q0 79 -1.5 132.5t-6.5 108t-13.5 89.5t-23.5 68t-36 52t-50.5 34t-67.5 20.5t-88 5.5h-248v-944zM1176 0v51h159v1659h-159v51h491v-51h-162v-1659h162v-51h-491z" />
<glyph unicode="&#x42c;" horiz-adv-x="1320" d="M104 0v51h160v1659h-160v51h519v-51h-189v-663h268q63 0 114 -4t93 -14.5t73.5 -23.5t56.5 -37t42 -47.5t29.5 -63t19.5 -75.5t11 -91.5t5 -105.5t1 -124q0 -98 -13 -171t-29.5 -122.5t-58 -82t-70.5 -50t-96.5 -25.5t-108 -9t-129.5 -1h-36h-502zM434 51h221 q83 0 136.5 13t90 40t55 81t25.5 122t7 178q0 79 -1.5 132.5t-6.5 108t-13.5 89.5t-23.5 68t-36 52t-50.5 34t-67.5 20.5t-88 5.5h-248v-944z" />
<glyph unicode="&#x42d;" horiz-adv-x="1335" d="M174 410v82h133v-89q0 -70 4.5 -117.5t21.5 -97.5t47 -80t83.5 -50.5t128.5 -22.5q79 -2 132 7t100 39t77.5 89.5t50.5 153.5q31 143 31 487v68q-49 43 -102 43q-41 0 -80.5 -17.5t-67 -39t-68.5 -39t-85 -17.5q-46 0 -81 9.5t-63 30t-46.5 42t-43.5 57.5l31 27 q49 -60 110 -60q47 0 103.5 24.5t117.5 49.5t117 25q102 0 156 -66q-3 304 -29 482q-28 177 -88.5 235.5t-214.5 58.5q-92 0 -151.5 -21.5t-95.5 -73t-52 -125.5t-20 -189h-133v457h114l13 -211q18 107 94 163t229 56q107 0 180 -15.5t131 -55t94 -108t60 -174.5 q49 -217 49 -565q0 -331 -51 -528q-15 -57 -34 -103t-38.5 -80.5t-47 -61t-51.5 -44.5t-59 -30.5t-63 -19t-70.5 -10t-73.5 -4.5t-81 -1q-79 0 -143 15t-107 38.5t-74.5 59.5t-49 72t-28 81.5t-13.5 82.5t-3 81z" />
<glyph unicode="&#x42e;" horiz-adv-x="1980" d="M104 0v51h160v1659h-160v51h490v-51h-162v-760h309q6 295 47 477q26 105 66 174t101 109t136.5 56t182.5 16t182 -16t136 -56t101 -109t66 -174q47 -211 47 -555q0 -343 -49 -538q-20 -72 -46.5 -127.5t-54 -93t-65.5 -63.5t-70 -40t-78.5 -22t-81.5 -9.5t-87 -1.5 t-87 1.5t-81.5 9.5t-78.5 22t-70 40t-65.5 63.5t-54 93t-46.5 127.5q-50 190 -50 565h-309v-848h162v-51h-490zM922 899q0 -319 30 -551q12 -82 31.5 -138.5t44.5 -91.5t64 -53.5t80 -25t102 -6.5t102 6.5t79.5 25t63.5 53.5t44.5 91.5t31.5 138.5q31 239 31 551 q0 295 -31 514q-15 101 -39.5 163.5t-66 95t-90 43.5t-125.5 11q-62 0 -103.5 -6.5t-79.5 -25.5t-63 -53.5t-44.5 -90.5t-31.5 -137q-30 -211 -30 -514z" />
<glyph unicode="&#x42f;" horiz-adv-x="1380" d="M10 0v51h72q42 0 71 9.5t47 25.5t29 47t16 62.5t9 83.5l27 313q7 82 34 143.5t60.5 95t78 54.5t76 27t64.5 8v2q-122 15 -198 45.5t-118 87t-56.5 127t-14.5 182.5q0 51 2 86.5t11.5 80.5t26 75t47 62t74 50.5t108 30.5t147.5 12h653v-51h-160v-1659h160v-51h-551v51h221 l-2 848h-176q-21 0 -41 -1.5t-51 -8t-57 -17t-55 -31t-50 -47.5t-36 -68.5t-19 -92.5l-25 -346q-4 -49 -8.5 -85.5t-11 -67t-15 -50.5t-19.5 -36t-25.5 -24t-32.5 -14.5t-40 -7t-49 -2.5t-59 0h-39h-125zM383 1331q0 -215 78.5 -298t263.5 -83h219v760h-248q-75 0 -123 -5 t-85 -23t-56 -41t-31 -71t-15 -99.5t-3 -139.5z" />
<glyph unicode="&#x430;" horiz-adv-x="1042" d="M106 276q0 137 62 198t240 87q76 12 186 12q67 0 100 -2v213q0 209 -184 209q-57 0 -98 -15t-61 -34.5t-31 -49t-12.5 -48.5t-0.5 -43l2 -58h-147l-2 48q-3 74 22 124.5t75 76.5t108.5 36t138.5 10q81 0 138 -11t105.5 -39.5t72.5 -83t24 -136.5v-623q0 -53 19.5 -74.5 t70.5 -21.5h61v-51h-151q-95 0 -121.5 24t-24.5 109q-59 -145 -276 -145q-82 0 -141.5 17t-92.5 43t-52 66.5t-24.5 77t-5.5 84.5zM260 268q0 -34 2.5 -59t14.5 -59.5t33 -56.5t62 -38t97 -16q107 0 166 74.5t59 201.5v207q-55 6 -110 6q-62 0 -111 -8q-58 -10 -98.5 -28.5 t-62.5 -40t-34 -54.5t-15 -60.5t-3 -68.5z" />
<glyph unicode="&#x431;" horiz-adv-x="1116" d="M145 965q3 127 23.5 220.5t57.5 161.5t99 116.5t138 80.5t184 58q131 32 178.5 61t51.5 98h53q0 -57 -12 -102t-37 -78.5t-53.5 -57t-74.5 -43.5t-86 -32.5t-102 -28.5q-85 -22 -146 -52.5t-100 -67t-63 -88.5t-35 -107t-16 -133q-3 -75 -3.5 -96t2 -75t3.5 -85 q32 151 116 231t248 80q134 0 221 -36.5t129 -98.5t58 -158q16 -93 16 -225q0 -134 -16 -227q-23 -146 -114.5 -219.5t-293.5 -73.5q-105 0 -179 20t-119 60t-69 91t-36 122q-16 104 -16 219q0 58 -4 226.5t-3 238.5zM303 508q0 -86 14 -229q5 -43 11.5 -72.5t23.5 -65 t42.5 -56.5t70.5 -35.5t106 -14.5q45 0 81.5 7.5t61.5 19.5t44.5 31.5t31 38.5t20 46t12.5 49t7 52q15 123 15 229q0 104 -15 227q-3 30 -7 52t-12.5 49t-20 46t-31 38.5t-44.5 31.5t-61.5 19.5t-81.5 7.5q-226 0 -254 -244q-14 -144 -14 -227z" />
<glyph unicode="&#x432;" horiz-adv-x="1083" d="M145 1395q0 103 27 176t78.5 113.5t117.5 58.5t154 18q118 0 195 -23t120 -73.5t59.5 -118.5t16.5 -170q0 -86 -6.5 -146.5t-25 -115.5t-50.5 -90.5t-83.5 -59t-124.5 -32.5q96 0 162 -27t100.5 -63.5t52.5 -106t21.5 -122.5t3.5 -144q0 -96 -7 -164t-25.5 -124 t-48 -90.5t-77 -58t-110.5 -33t-150 -9.5q-40 0 -63.5 0.5t-60 3t-59 7.5t-53 14.5t-49.5 23t-40 34t-33.5 47t-22 62.5t-12.5 80q-7 110 -7 1133zM295 1393l2 -447h176q75 0 127.5 20.5t83.5 53.5t48 89.5t22.5 114.5t5.5 142q0 193 -49 270.5t-191 77.5 q-60 0 -102.5 -16.5t-66 -42t-36.5 -70t-16.5 -86.5t-3.5 -106zM297 895l4 -571q1 -88 16.5 -145.5t48.5 -88t74.5 -42t104.5 -11.5q41 0 74 5t59 13.5t45 25t33 34t23.5 47t15 56t8 70t3.5 81t1 94.5q0 69 -2.5 116.5t-10.5 96.5t-23 80.5t-39.5 60t-60 44.5t-84.5 25 t-114 9h-176z" />
<glyph unicode="&#x433;" horiz-adv-x="974" d="M127 258q0 64 24.5 111.5t74.5 80t101 52t128 39.5q74 19 122 46t69.5 62t28.5 67t7 77q0 196 -158 196q-120 0 -177 -63t-60 -189h-127v287h96l8 -197q42 209 264 209q155 0 228 -61t73 -170q0 -58 -9.5 -96.5t-40 -79t-93.5 -72t-164 -57.5q-74 -20 -122 -43 t-73.5 -54.5t-35 -65t-10.5 -83.5q-2 -101 50 -160.5t173 -58.5q131 2 182 52t51 183v54h140v-50q0 -49 -8 -87t-32.5 -77t-65 -64.5t-110 -41.5t-163.5 -16q-193 0 -282 66.5t-89 203.5z" />
<glyph unicode="&#x434;" horiz-adv-x="1124" d="M123 502q0 124 22 243q27 146 111.5 217.5t255.5 71.5q267 0 305 -227l19 217h120v-1114q0 -237 -89 -328.5t-314 -91.5q-96 0 -167 16t-111.5 42t-65 65t-32 77.5t-7.5 88.5v51h137v-57q1 -131 57 -183.5t183 -52.5q66 0 111.5 13.5t74 37.5t45 66.5t23 88.5t8.5 116 l2 303h-2q-66 -162 -291 -162q-71 0 -127.5 11t-94.5 34t-64 47t-44 61t-27 65t-18 69q-20 90 -20 215zM279 518q0 -151 12 -233q18 -129 67 -183.5t170 -54.5q72 0 123.5 22t81 62t44 85t20.5 103q10 103 10 195q0 113 -12 217q-14 118 -83 187t-200 69q-62 0 -103 -16.5 t-64 -52.5t-33 -72.5t-19 -97.5q-14 -96 -14 -230z" />
<glyph unicode="&#x435;" horiz-adv-x="1009" d="M121 512q0 98 6 193q7 99 39.5 167t88.5 103t119.5 49t147.5 14q59 0 107.5 -8t96.5 -30.5t81.5 -58.5t56 -96t27.5 -140q2 -28 2 -62.5t-1 -76t-1 -62.5h-617q0 -68 7 -197q9 -143 67.5 -208.5t194.5 -65.5q67 0 109.5 16.5t65.5 55t31.5 88.5t8.5 129h131 q0 -175 -79 -255.5t-267 -80.5q-90 0 -157.5 14t-126 49t-92 103t-40.5 167q-6 95 -6 193zM274 555h484q0 103 -2 156q-1 29 -2.5 48t-7.5 51t-15 54t-26.5 48t-41 41.5t-60 26.5t-81.5 11q-124 0 -178 -65.5t-63 -208.5q-7 -96 -7 -162z" />
<glyph unicode="&#x436;" horiz-adv-x="1531" d="M47 0v53h43q58 0 76.5 24.5t23.5 88.5l15 182q4 54 28.5 93t62 58.5t70 28t68.5 11.5h-2q-96 12 -131 67t-57 215l-25 152h-113v51h324v-51h-86l18 -142q21 -144 39 -185q26 -62 90 -80q41 -11 111 -11h94v1155h-143v51q159 0 281 15v-1221h96q126 0 170 44q36 35 54 138 q5 25 15 94l19 142h-90v51h323v-51h-108l-25 -152q-22 -160 -57 -215t-131 -67h-2q36 -3 68.5 -11.5t70 -28t62 -58.5t28.5 -93l14 -182q5 -64 24 -88.5t77 -24.5h43v-53h-111q-95 0 -116 5q-39 11 -53 58q-10 34 -15 107l-14 203q-4 59 -23.5 85t-66 35.5t-152.5 10.5h-100 v-453h143v-51h-424v51h143v453h-98q-106 -1 -152.5 -10.5t-66 -35.5t-23.5 -85l-14 -203q-2 -29 -4.5 -51t-6.5 -39.5t-9 -29.5t-11.5 -21.5t-15.5 -14t-20 -8.5t-25 -4.5t-30.5 -1.5t-36.5 0h-6.5h-6h-6.5h-6h-111z" />
<glyph unicode="&#x437;" horiz-adv-x="876" d="M37 -150h143v-73q0 -130 53 -182t173 -54q142 -1 188.5 72.5t46.5 280.5q0 69 -4.5 115.5t-16.5 89.5t-33.5 68.5t-57 45t-85 27.5t-118.5 8h-107v51h107q64 0 106 5.5t74.5 22t50.5 40.5t29 68.5t14 97.5t2 135q-3 191 -38 257t-134 66q-122 0 -174.5 -66t-58.5 -210 h-127v309h96l10 -197q5 40 18.5 73.5t41 66.5t77 52t117.5 19q94 0 152.5 -15.5t98 -58.5t56 -112.5t19.5 -183.5q5 -187 -50.5 -282t-189.5 -110q86 -3 143.5 -32t86.5 -83t40 -114t11 -143q0 -223 -88 -316.5t-303 -93.5q-111 0 -187 23t-114 66t-53 90.5t-15 109.5v67z " />
<glyph unicode="&#x438;" horiz-adv-x="1177" d="M47 973v51q179 0 293 14v-755q0 -48 6 -83.5t25.5 -76.5t64.5 -63.5t113 -22.5q109 0 181.5 93t72.5 249v594h-144v51q179 0 293 14v-893q0 -59 17 -76.5t73 -17.5h54v-51h-158q-41 0 -64 4t-39 15t-20.5 30.5t-8 50.5t0.5 76q-68 -188 -324 -188q-152 0 -222.5 70.5 t-70.5 230.5v684h-143z" />
<glyph unicode="&#x439;" horiz-adv-x="1142" d="M47 973v51q179 0 293 14v-755q0 -48 6 -83.5t25.5 -76.5t64.5 -63.5t113 -22.5q109 0 181.5 93t72.5 249v594h-144v51q179 0 293 14v-893q0 -59 17 -76.5t73 -17.5h54v-51h-158q-41 0 -64 4t-39 15t-20.5 30.5t-8 50.5t0.5 76q-68 -188 -324 -188q-152 0 -222.5 70.5 t-70.5 230.5v684h-143zM328 1354q0 45 28.5 73.5t67.5 28.5q42 0 69 -24.5t27 -65.5q0 -38 -23.5 -63.5t-58.5 -30.5q48 -33 111 -33q93 0 156.5 56.5t66.5 136.5h37q-3 -88 -73.5 -156.5t-188.5 -71.5q-82 -2 -150.5 41.5t-68.5 108.5z" />
<glyph unicode="&#x43a;" horiz-adv-x="1095" d="M51 0v51h144v1659h-132v51q159 0 281 15v-1223h109q34 0 61 1.5t50 7.5t40 10.5t31 17.5t23.5 21.5t17.5 29.5t13 35t10 44t8 49.5t8 59.5l18 144h-112v51h378v-51h-143l-22 -154q-24 -162 -59.5 -216t-135.5 -66l-2 -2q28 -2 53 -7t57 -18t55.5 -32.5t41.5 -53.5t22 -78 l15 -164q6 -80 23.5 -105.5t76.5 -25.5h43v-51h-111q-96 0 -115 4q-39 10 -54 53q-11 35 -17 111l-14 192q-4 60 -23 88t-71.5 41t-161.5 13h-113v-451h162v-51h-455z" />
<glyph unicode="&#x43b;" horiz-adv-x="1030" d="M20 0v51h125l291 973h150l299 -973h125v-51h-432v51h151l-264 877l-258 -877h147v-51h-334z" />
<glyph unicode="&#x43c;" horiz-adv-x="1409" d="M57 0v51h144v922h-144v51h340l310 -881h4l307 881h317v-51h-118v-922h141v-51h-420v51h129v897h-4l-330 -948h-129l-330 950h-6v-899h156v-51h-367z" />
<glyph unicode="&#x43d;" horiz-adv-x="1159" d="M57 0v51h144v922h-144v51q179 0 293 14v-467h459v402h-143v51q178 0 292 14v-987h144v-51h-412v51h119v469h-459v-469h121v-51h-414z" />
<glyph unicode="&#x43e;" horiz-adv-x="1093" d="M123 512q0 119 16 231q12 71 36 122t70 91t121 60t181 20q105 0 179 -19.5t120 -59.5t71 -91t37 -123q17 -99 17 -231t-17 -231q-12 -72 -35.5 -122.5t-68.5 -91t-120.5 -60t-182.5 -19.5t-182.5 19.5t-121 60t-69 91t-35.5 122.5q-16 112 -16 231zM276 512 q0 -82 15 -236q5 -43 12 -73.5t24 -64.5t43.5 -55t71 -34.5t105.5 -13.5t105.5 13.5t71 34.5t43.5 55t24 64.5t12 73.5q14 115 14 236t-14 236q-5 43 -12 73.5t-24 64.5t-43.5 55t-71 34.5t-105.5 13.5t-105.5 -13.5t-71 -34.5t-43.5 -55t-24 -64.5t-12 -73.5 q-15 -154 -15 -236z" />
<glyph unicode="&#x43f;" horiz-adv-x="1169" d="M57 0v51h144v922h-144v51q167 0 281 14l2 -155v-39q35 91 121 141.5t203 50.5q166 0 236.5 -73t70.5 -207v-590q0 -56 19 -85.5t71 -29.5h61v-51h-188q-56 0 -84.5 17t-28.5 73v653q0 33 -1.5 55t-7.5 54t-20 53t-36.5 41.5t-60 30.5t-87.5 10q-109 0 -183.5 -82.5 t-74.5 -230.5v-623h162v-51h-455z" />
<glyph unicode="&#x440;" horiz-adv-x="1153" d="M51 969v51q167 0 281 14l4 -227q45 227 303 227q94 0 160.5 -19.5t107.5 -59t64 -89.5t37 -121q22 -110 22 -225q0 -135 -20 -241q-28 -145 -111.5 -219t-249.5 -74q-55 0 -98 7.5t-85 26t-73.5 55.5t-50.5 91l2 -658h-149v1461h-144zM346 520q0 -145 8 -203 q6 -46 14.5 -80t28 -75t48 -67t77.5 -44t113 -18q113 0 159.5 52.5t65.5 186.5q14 98 14 248q0 139 -16 248q-19 121 -68 170t-155 49q-59 0 -105 -15t-75 -39t-50 -60t-31 -71t-16 -79q-12 -87 -12 -203z" />
<glyph unicode="&#x441;" horiz-adv-x="976" d="M121 512q0 119 16 231q10 59 22.5 99.5t37.5 80t63 62.5t97.5 37t140.5 14q68 0 117 -14.5t76.5 -42t41.5 -55t23 -64.5l8 164h92v-309h-123q0 48 -5 85.5t-20 74t-40.5 60.5t-68.5 39t-101 15q-67 0 -109 -14.5t-61.5 -50t-25.5 -62.5t-12 -85q-2 -19 -3 -29 q-13 -109 -13 -242q0 -126 13 -230q12 -98 20 -125q28 -86 121 -108q37 -8 86 -8q127 0 173 51t46 184v54h131v-48q0 -47 -7 -84.5t-29 -77.5t-59 -66t-102 -43t-153 -17q-87 0 -150.5 14t-102.5 36.5t-64.5 62.5t-37.5 80t-22 100q-16 112 -16 231z" />
<glyph unicode="&#x442;" horiz-adv-x="1765" d="M57 0v51h144v922h-144v51q165 0 279 14l2 -155l2 -41q33 93 129 143.5t201 50.5q243 0 282 -194q37 92 132.5 143t195.5 51q87 0 145 -19.5t88 -59t42 -87t12 -114.5v-592q0 -55 19 -84t71 -29h61v-51h-188q-56 0 -84.5 17t-28.5 73v653q0 35 -1 55.5t-5.5 53.5t-16 53 t-30 41t-50 31t-73.5 10q-50 0 -99.5 -20.5t-91 -58t-67 -99t-25.5 -135.5v-623h185v-51h-477v51h143v692q0 33 -1.5 55t-7 54t-18.5 53t-33.5 41.5t-55 30.5t-79.5 10q-44 0 -89.5 -20.5t-85 -58t-64.5 -99t-25 -135.5v-623h144v-51h-437z" />
<glyph unicode="&#x443;" horiz-adv-x="1112" d="M47 973v51q169 0 283 14v-747q0 -37 3 -66.5t14.5 -64t30.5 -57.5t54 -38.5t82 -15.5q279 0 279 422v502h-131v51q168 0 282 14v-155l-2 -965q0 -240 -88 -335t-319 -95q-81 0 -143 10.5t-103 31.5t-68 46t-41 60t-19 67.5t-5 73.5v47h137v-33q0 -146 53.5 -201 t185.5 -55q52 0 92.5 9t69 24t48.5 41t32 54t18.5 70.5t8.5 82.5t2 96v301q-14 -54 -44 -94.5t-63.5 -62t-75.5 -35t-73.5 -17.5t-63.5 -4q-89 0 -151 23.5t-94 67.5t-45 93t-13 113v676h-133z" />
<glyph unicode="&#x444;" horiz-adv-x="1396" d="M123 524q2 106 15.5 181.5t47 139t90 101t143 58t208.5 20.5v535h-144v51q171 0 285 14v-600q152 0 251.5 -29.5t155 -94t77 -149.5t22.5 -214q1 -97 -6.5 -168t-28 -134.5t-56.5 -105t-92.5 -72t-136 -44t-186.5 -13.5v-440h160v-52h-461v52h160v440q-104 0 -181 12 t-134 39.5t-94 67t-58.5 100.5t-30 133.5t-6.5 171.5zM279 528q0 -104 8 -175.5t29.5 -133t60.5 -97t100.5 -55t149.5 -20.5v930q-87 0 -148 -18.5t-100 -52t-61 -91t-30.5 -124.5t-8.5 -163zM768 47q91 0 154.5 22.5t102 61t60 105t28.5 138t7 175.5q0 89 -9.5 154t-33 119 t-63.5 87t-101 51t-145 17v-930z" />
<glyph unicode="&#x445;" horiz-adv-x="1054" d="M10 0v51h127l301 484l-276 444h-135v45h444v-45h-133l215 -348l219 348h-110v45h348v-45h-170l-252 -404l323 -524h133v-51h-397v51h92l-266 428l-268 -428h151v-51h-346z" />
<glyph unicode="&#x446;" horiz-adv-x="1148" d="M47 973v51q169 0 283 14v-741q0 -38 3 -68t15.5 -68t33.5 -63t61.5 -43t95.5 -18q109 0 181.5 90.5t72.5 245.5v600h-131v51q166 0 280 14v-987h197v-330h-103l-12 279h-213v207q-62 -219 -338 -219q-152 0 -222.5 70.5t-70.5 230.5v684h-133z" />
<glyph unicode="&#x447;" horiz-adv-x="1019" d="M0 973v51q169 0 283 14v-397q0 -39 3 -68.5t13 -62.5t27.5 -54.5t49.5 -35.5t75 -14q46 0 83.5 11t65.5 33t43 38t35 42v443h-131v51q168 0 282 14v-987h144v-51h-445v51h160l-4 420q-33 -30 -47 -42t-48.5 -33.5t-75 -30.5t-91.5 -9q-87 0 -146 23t-89 66.5t-42 92.5 t-12 115v320h-133z" />
<glyph unicode="&#x448;" horiz-adv-x="1757" d="M47 973v51q169 0 283 14v-71l2 -686q0 -25 0.5 -41t4 -44t10 -47.5t19.5 -42.5t31 -37.5t46.5 -24t64.5 -9.5q106 0 194.5 86.5t88.5 218.5v633h-134v51q169 0 283 14v-759q0 -34 2 -59t13 -62.5t30 -62t57.5 -42.5t92.5 -18q43 0 89 21.5t85.5 59.5t64.5 96.5t25 125.5 v635h-133v51q168 0 282 14v-893q0 -53 19.5 -82.5t70.5 -29.5h72v-33h-188q-81 0 -97 30t-16 147v30h-4q-25 -105 -120 -162t-206 -57q-256 0 -284 213q-35 -101 -129 -158t-197 -57q-87 0 -145.5 20t-89 59.5t-42.5 87.5t-12 115v705h-133z" />
<glyph unicode="&#x449;" horiz-adv-x="1789" d="M47 973v51q169 0 283 14v-71l2 -688q0 -25 0.5 -41t4 -44t10 -47.5t19.5 -42.5t31 -37.5t46.5 -24t64.5 -9.5q106 0 194.5 86.5t88.5 218.5v635h-134v51q169 0 283 14v-759q0 -34 2 -59t13 -62.5t30 -62t57.5 -43t92.5 -19.5q94 2 179 88.5t85 216.5v635h-133v51 q168 0 282 14v-987h211v-325h-100l-14 274h-234l-2 207h-4q-25 -105 -119.5 -162t-206.5 -59q-256 3 -284 215q-35 -101 -129 -158t-197 -57q-87 0 -145.5 20t-89 59.5t-42.5 87.5t-12 115v705h-133z" />
<glyph unicode="&#x44a;" horiz-adv-x="1193" d="M20 1024h566v-53h-111v-353l232 -2q112 -1 178.5 -13t113 -46.5t64 -94t18.5 -157.5q1 -84 -13.5 -136.5t-56 -92.5t-118.5 -57.5t-199 -18.5l-504 -2v53h134v922l-211 -2l-15 -191h-73zM475 51l248 2q59 1 100 19.5t63 54t31.5 78.5t10.5 102q1 75 -17 127t-52 79.5 t-73.5 39t-91.5 12.5l-219 2v-516z" />
<glyph unicode="&#x44b;" horiz-adv-x="1513" d="M57 973v53h410v-53h-115l-2 -357q26 69 84.5 114.5t157.5 45.5q114 0 186.5 -21.5t112.5 -72t55 -119t15 -176.5q0 -111 -16 -182t-58.5 -122.5t-117.5 -73.5t-191 -23q-115 -1 -187.5 19t-115.5 69t-59 119.5t-17 183.5l2 596h-144zM350 385q0 -137 23.5 -212 t71.5 -104.5t133 -29.5q137 0 187 74.5t50 271.5q0 195 -45.5 267t-177.5 71q-120 0 -181 -74t-61 -264zM1026 0v51h143v922h-143v51h440v-51h-147v-922h147v-51h-440z" />
<glyph unicode="&#x44c;" horiz-adv-x="1038" d="M57 973v51h373v-51h-111v-355l232 -2q112 -1 178.5 -13t113 -46.5t64.5 -94t19 -157.5q1 -84 -13.5 -136.5t-56 -92.5t-118.5 -57.5t-199 -18.5l-463 -2v53h92v922h-111zM319 51l248 2q116 1 159.5 61t45.5 193q1 74 -17 125.5t-52 79t-73.5 39t-90.5 12.5l-220 2v-514z " />
<glyph unicode="&#x44d;" horiz-adv-x="991" d="M121 276v48h121v-52q0 -140 51 -188.5t192 -48.5q35 0 63.5 4t49 13.5t36 18.5t26 26.5t17 29t11 36t6 36.5t4.5 40t4 40q12 114 15 215q-52 45 -96 45q-33 0 -65.5 -14.5t-55 -32t-54.5 -32t-65 -14.5q-54 0 -90 27.5t-76 85.5l10 29q50 -47 119 -47q29 0 62 15.5 t73 31.5t86 16q89 0 152 -67q0 69 -15 204q-1 10 -3.5 36t-4 37t-5.5 33.5t-8.5 33.5t-12.5 29t-18.5 27t-25.5 21t-33.5 17.5t-43.5 9.5t-55 4q-134 0 -180 -53.5t-58 -218.5l-115 -2v309h84l10 -197q5 36 10 58t21.5 54.5t42 50.5t73 32t112.5 14q81 0 140.5 -14t97 -37 t62.5 -62.5t37.5 -80t22.5 -99.5q16 -93 16 -231t-16 -231q-8 -51 -16.5 -84.5t-25 -70.5t-41.5 -59.5t-63 -42t-93 -28t-128 -8.5q-91 0 -158.5 16.5t-106 42t-61.5 65t-30.5 77.5t-7.5 87z" />
<glyph unicode="&#x44e;" horiz-adv-x="1546" d="M51 0v51h144v1667h-134v51q161 0 283 15v-1249h231q0 101 17 208q12 72 36 122.5t69.5 90.5t120.5 60t181 20q105 0 179.5 -19.5t120.5 -59.5t71 -91t37 -123q16 -93 16 -231t-16 -231q-12 -72 -35.5 -122.5t-69 -91t-121 -60t-182.5 -19.5t-182.5 19.5t-120.5 60 t-68.5 91t-35.5 122.5q-17 104 -17 202h-231v-432h100v-51h-393zM729 512q0 -121 14 -236q5 -43 12 -73.5t24 -64.5t43.5 -55t71 -34.5t105.5 -13.5t105.5 13.5t71 34.5t43.5 55t24 64.5t12 73.5q13 107 13 236q0 126 -13 233q-5 44 -12 75t-24 65t-43.5 55t-71 35 t-105.5 14t-105.5 -14t-71 -35t-43.5 -55t-24 -65t-12 -75q-14 -115 -14 -233z" />
<glyph unicode="&#x44f;" horiz-adv-x="1071" d="M39 0v51h43q61 0 77.5 19t22.5 96l15 184q4 49 24.5 84.5t52.5 54.5t65 27.5t69 9.5q-133 7 -188.5 65.5t-55.5 182.5q0 149 76 199.5t270 50.5h514v-51h-143v-922h143v-51h-473v51h180v453h-203q-106 0 -140 -27.5t-40 -114.5l-14 -192q-2 -29 -5 -50.5t-7 -39.5t-9 -30 t-12 -21.5t-16 -14t-20 -8.5t-25 -4.5t-31 -1.5t-37 0h-8h-8h-9h-108zM317 770q0 -67 16.5 -110t53.5 -66t83 -31t116 -8h145v418h-164q-54 0 -87.5 -2.5t-64.5 -10t-47.5 -20.5t-29 -36.5t-17 -55t-4.5 -78.5z" />
<glyph unicode="&#x450;" horiz-adv-x="1009" d="M121 512q0 98 6 193q7 99 39.5 167t88.5 103t119.5 49t147.5 14q59 0 107.5 -8t96.5 -30.5t81.5 -58.5t56 -96t27.5 -140q2 -28 2 -62.5t-1 -76t-1 -62.5h-617q0 -68 7 -197q9 -143 67.5 -208.5t194.5 -65.5q67 0 109.5 16.5t65.5 55t31.5 88.5t8.5 129h131 q0 -175 -79 -255.5t-267 -80.5q-90 0 -157.5 14t-126 49t-92 103t-40.5 167q-6 95 -6 193zM274 555h484q0 103 -2 156q-1 29 -2.5 48t-7.5 51t-15 54t-26.5 48t-41 41.5t-60 26.5t-81.5 11q-124 0 -178 -65.5t-63 -208.5q-7 -96 -7 -162zM362 1585q0 18 11 32t30 17 q25 4 40 -10.5t30 -44.5q56 -111 81 -156.5t85 -146.5l-27 -14q-87 117 -166 200q-47 50 -65.5 76t-18.5 47z" />
<glyph unicode="&#x451;" horiz-adv-x="1017" d="M121 512q0 98 6 193q7 99 39.5 167t88.5 103t119.5 49t147.5 14q59 0 107.5 -8t96.5 -30.5t81.5 -58.5t56 -96t27.5 -140q2 -28 2 -62.5t-1 -76t-1 -62.5h-617q0 -68 7 -197q9 -143 67.5 -208.5t194.5 -65.5q67 0 109.5 16.5t65.5 55t31.5 88.5t8.5 129h131 q0 -175 -79 -255.5t-267 -80.5q-90 0 -157.5 14t-126 49t-92 103t-40.5 167q-6 95 -6 193zM268 1288q0 88 88 88t88 -88t-88 -88t-88 88zM274 555h484q0 103 -2 156q-1 29 -2.5 48t-7.5 51t-15 54t-26.5 48t-41 41.5t-60 26.5t-81.5 11q-124 0 -178 -65.5t-63 -208.5 q-7 -96 -7 -162zM573 1288q0 88 89 88q88 0 88 -88t-88 -88q-89 0 -89 88z" />
<glyph unicode="&#x452;" horiz-adv-x="1130" d="M57 0v51h144v1196h-144v51h144v412h-144v51q170 0 293 15v-478h338v-51h-338v-420l2 -2q30 98 119.5 154.5t206.5 56.5q82 0 137.5 -21t85 -62.5t41 -92t10.5 -121.5l2 -657q-6 -214 -98.5 -294.5t-331.5 -80.5q-36 0 -84 6l4 49q36 -8 86 -8q154 0 214.5 75t60.5 271 v625q0 29 -0.5 46t-4 47.5t-10.5 50t-21 43.5t-33.5 37.5t-50 23.5t-69.5 10q-103 0 -184.5 -88.5t-81.5 -222.5v-621h203v-51h-496z" />
<glyph unicode="&#x453;" horiz-adv-x="974" d="M127 258q0 64 24.5 111.5t74.5 80t101 52t128 39.5q74 19 122 46t69.5 62t28.5 67t7 77q0 196 -158 196q-120 0 -177 -63t-60 -189h-127v287h96l8 -197q42 209 264 209q155 0 228 -61t73 -170q0 -58 -9.5 -96.5t-40 -79t-93.5 -72t-164 -57.5q-74 -20 -122 -43 t-73.5 -54.5t-35 -65t-10.5 -83.5q-2 -101 50 -160.5t173 -58.5q131 2 182 52t51 183v54h140v-50q0 -49 -8 -87t-32.5 -77t-65 -64.5t-110 -41.5t-163.5 -16q-193 0 -282 66.5t-89 203.5zM381 1280q63 96 91 146t79 153q28 62 70 55q19 -3 30 -17t11 -32q0 -21 -18.5 -47 t-65.5 -76q-37 -39 -62.5 -70t-59.5 -79t-40 -56z" />
<glyph unicode="&#x458;" horiz-adv-x="546" d="M-39 -502l2 51q54 -8 88 -8q33 0 58.5 5t42 14t27.5 22.5t16.5 30t8.5 36t3 42v46.5v27l-2 1154v55h-144v51q130 0 293 20v-106l2 -1198q0 -146 -61.5 -198t-218.5 -52q-61 0 -115 8zM162 1430q0 59 27 86.5t85 27.5q56 0 83.5 -32.5t27.5 -79.5q0 -58 -27 -84.5 t-84 -26.5q-59 0 -85.5 25.5t-26.5 83.5z" />
<glyph unicode="&#x459;" horiz-adv-x="1568" d="M10 0v51h148l497 922h-112v51h436v-51h-129v-357h201q214 0 309.5 -71.5t95.5 -216.5q0 -167 -100.5 -247.5t-321.5 -80.5h-477v51h158l2 916l-496 -916h123v-51h-334zM850 51h162q92 0 150 16t88.5 53t41.5 85t11 125q0 127 -65.5 181t-229.5 54h-158v-514z" />
<glyph unicode="&#x45a;" horiz-adv-x="1622" d="M57 0v51h119v922h-119v51h389v-51h-120v-402h440v402h-119v51h377v-51h-121v-357h201q214 0 309.5 -71.5t95.5 -216.5q0 -167 -100.5 -247.5t-321.5 -80.5h-321v520h-440v-469h120v-51h-389zM903 53h162q92 0 150 15.5t89 52.5t41.5 84.5t10.5 124.5q0 126 -64.5 178.5 t-230.5 56.5h-158v-512z" />
<glyph unicode="&#x45b;" horiz-adv-x="1163" d="M51 0v51h144v1186h-144v51h144v422h-134v51q158 0 283 15v-488h338v-51h-338v-391q34 90 116.5 140t196.5 50q166 0 237 -73t71 -207v-590q0 -56 19 -85.5t71 -29.5h61v-51h-188q-56 0 -84.5 17t-28.5 73v651q0 33 -1.5 55t-7.5 54t-20 53t-36.5 41.5t-60 30.5t-87.5 10 q-109 0 -183.5 -82.5t-74.5 -230.5v-621h162v-51h-455z" />
<glyph unicode="&#x45d;" horiz-adv-x="1177" d="M47 973v51q179 0 293 14v-755q0 -48 6 -83.5t25.5 -76.5t64.5 -63.5t113 -22.5q109 0 181.5 93t72.5 249v594h-144v51q179 0 293 14v-893q0 -59 17 -76.5t73 -17.5h54v-51h-158q-41 0 -64 4t-39 15t-20.5 30.5t-8 50.5t0.5 76q-68 -188 -324 -188q-152 0 -222.5 70.5 t-70.5 230.5v684h-143zM424 1585q0 18 11 32t30 17q25 4 40 -10.5t30 -44.5q7 -13 20.5 -40.5t18 -36t15 -29.5t15 -29.5t14.5 -26.5t16.5 -29.5t17.5 -30.5l22 -38t26 -43l-26 -14q-87 117 -166 200q-47 50 -65.5 76t-18.5 47z" />
<glyph unicode="&#x45f;" horiz-adv-x="1153" d="M57 0v51h144v922h-144v51h414v-51h-121v-922h463v922h-119v51h412v-51h-143v-922h143v-51h-461v-324h-110v324h-478z" />
<glyph unicode="&#x490;" horiz-adv-x="1132" d="M104 0v51h160v1659h-160v51h885v350l133 -2l-2 -399h-686v-1659h180v-51h-510z" />
<glyph unicode="&#x491;" horiz-adv-x="854" d="M57 0v51h144v922h-144v51h676v276h111v-327h-494v-922h121v-51h-414z" />
<glyph unicode="&#x4ee;" horiz-adv-x="1310" d="M72 1710v51h327v-708q0 -351 238 -351q172 0 244.5 106.5t72.5 311.5v590h-166v51h336l-2 -1323q0 -244 -114 -348t-357 -104q-416 0 -420 350v59h140v-55q0 -80 12 -132.5t43 -91.5t86.5 -57t140.5 -18q49 0 90 7.5t71 21.5t54 34t39 44.5t26.5 53t16.5 59.5t8.5 64 t3.5 67.5t1 69t0 68.5l2 351h-2q-37 -127 -118 -181.5t-235 -54.5q-103 0 -179 27.5t-119 76t-63 108.5t-20 132v721h-157zM401 1964v47h570v-47h-570z" />
<glyph unicode="&#x4ef;" horiz-adv-x="1112" d="M47 973v51q169 0 283 14v-747q0 -37 3 -66.5t14.5 -64t30.5 -57.5t54 -38.5t82 -15.5q279 0 279 422v502h-131v51q168 0 282 14v-155l-2 -965q0 -240 -88 -335t-319 -95q-81 0 -143 10.5t-103 31.5t-68 46t-41 60t-19 67.5t-5 73.5v47h137v-33q0 -146 53.5 -201 t185.5 -55q52 0 92.5 9t69 24t48.5 41t32 54t18.5 70.5t8.5 82.5t2 96v301q-14 -54 -44 -94.5t-63.5 -62t-75.5 -35t-73.5 -17.5t-63.5 -4q-89 0 -151 23.5t-94 67.5t-45 93t-13 113v676h-133zM266 1276v47h570v-47h-570z" />
<glyph unicode="&#x2000;" horiz-adv-x="1188" />
<glyph unicode="&#x2001;" horiz-adv-x="2376" />
<glyph unicode="&#x2002;" horiz-adv-x="1188" />
<glyph unicode="&#x2003;" horiz-adv-x="2376" />
<glyph unicode="&#x2004;" horiz-adv-x="792" />
<glyph unicode="&#x2005;" horiz-adv-x="594" />
<glyph unicode="&#x2006;" horiz-adv-x="396" />
<glyph unicode="&#x2007;" horiz-adv-x="396" />
<glyph unicode="&#x2008;" horiz-adv-x="297" />
<glyph unicode="&#x2009;" horiz-adv-x="475" />
<glyph unicode="&#x200a;" horiz-adv-x="132" />
<glyph unicode="&#x2010;" horiz-adv-x="1165" d="M113 651v82h940v-82h-940z" />
<glyph unicode="&#x2011;" horiz-adv-x="1165" d="M113 651v82h940v-82h-940z" />
<glyph unicode="&#x2012;" horiz-adv-x="1165" d="M113 651v82h940v-82h-940z" />
<glyph unicode="&#x2013;" horiz-adv-x="1275" d="M190 647v82h895v-82h-895z" />
<glyph unicode="&#x2014;" horiz-adv-x="1884" d="M190 647v82h1504v-82h-1504z" />
<glyph unicode="&#x2018;" horiz-adv-x="487" d="M113 1636q0 49 12 91t39.5 80t77.5 63.5t120 34.5l11 -35q-56 -2 -97.5 -18.5t-63 -41.5t-34.5 -56t-12 -63t4 -63q11 37 31.5 51.5t64.5 14.5q50 0 79.5 -21.5t29.5 -81.5q0 -66 -32 -93.5t-93 -27.5q-78 0 -107.5 45t-29.5 121z" />
<glyph unicode="&#x2019;" horiz-adv-x="487" d="M51 1702q0 66 32 93.5t93 27.5q78 0 107.5 -45t29.5 -121q0 -49 -12.5 -91t-40 -79.5t-77.5 -63t-120 -34.5l-10 34q56 2 97.5 18.5t63 41.5t34.5 56t12 63t-4 63q-11 -37 -31.5 -51.5t-64.5 -14.5q-50 0 -79.5 21.5t-29.5 81.5z" />
<glyph unicode="&#x201a;" horiz-adv-x="487" d="M113 45q0 66 32 93.5t93 27.5q78 0 107.5 -45t29.5 -121q0 -49 -12.5 -91t-40 -79.5t-77.5 -63t-120 -34.5l-10 35q56 2 97.5 18.5t62.5 41t34 55.5t12 63t-4 63q-11 -37 -31.5 -51t-64.5 -14q-50 0 -79 21t-29 81z" />
<glyph unicode="&#x201c;" horiz-adv-x="800" d="M113 1636q0 49 12 91t39.5 80t77.5 63.5t120 34.5l11 -35q-56 -2 -97.5 -18.5t-63 -41.5t-34.5 -56t-12 -63t4 -63q11 37 31.5 51.5t64.5 14.5q50 0 79.5 -21.5t29.5 -81.5q0 -66 -32 -93.5t-93 -27.5q-78 0 -107.5 45t-29.5 121zM426 1636q0 49 12.5 91t40 80t77.5 63.5 t120 34.5l10 -35q-56 -2 -97.5 -18.5t-63 -41.5t-34.5 -56t-12 -63t4 -63q11 37 32 51.5t65 14.5q49 0 78.5 -21.5t29.5 -81.5q0 -66 -32 -93.5t-93 -27.5q-78 0 -107.5 45t-29.5 121z" />
<glyph unicode="&#x201d;" horiz-adv-x="800" d="M113 1702q0 66 32 93.5t93 27.5q78 0 107.5 -45t29.5 -121q0 -49 -12.5 -91t-40 -79.5t-77.5 -63t-120 -34.5l-10 34q56 2 97.5 18.5t62.5 41.5t34 56t12 63t-4 63q-11 -37 -31.5 -51.5t-64.5 -14.5q-49 0 -78.5 21.5t-29.5 81.5zM426 1702q0 66 32 93.5t93 27.5 q78 0 107.5 -45t29.5 -121q0 -49 -12.5 -91t-40 -79.5t-77.5 -63t-120 -34.5l-10 34q56 2 97.5 18.5t63 41.5t34.5 56t12 63t-4 63q-11 -37 -31.5 -51.5t-64.5 -14.5q-50 0 -79.5 21.5t-29.5 81.5z" />
<glyph unicode="&#x201e;" horiz-adv-x="800" d="M113 45q0 66 32 93.5t93 27.5q78 0 107.5 -45t29.5 -121q0 -49 -12.5 -91t-40 -79.5t-77.5 -63t-120 -34.5l-10 35q56 2 97.5 18.5t62.5 41t34 55.5t12 63t-4 63q-11 -37 -31.5 -51t-64.5 -14q-50 0 -79 21t-29 81zM426 45q0 66 32 93.5t93 27.5q78 0 107.5 -45 t29.5 -121q0 -49 -12.5 -91t-40 -79.5t-77.5 -63t-120 -34.5l-10 35q56 2 97.5 18.5t63 41t34.5 55.5t12 63t-4 63q-11 -37 -31.5 -51t-64.5 -14q-50 0 -79.5 21t-29.5 81z" />
<glyph unicode="&#x2026;" horiz-adv-x="1284" d="M113 72q0 112 112 112q113 0 113 -112q0 -113 -113 -113q-112 0 -112 113zM537 72q0 112 112 112q113 0 113 -112q0 -113 -113 -113q-112 0 -112 113zM948 72q0 112 113 112t113 -112q0 -113 -113 -113t-113 113z" />
<glyph unicode="&#x202f;" horiz-adv-x="475" />
<glyph unicode="&#x2039;" horiz-adv-x="571" d="M113 539q85 89 122.5 131t79 101t64 114.5t45.5 138.5h35q-36 -166 -77 -262.5t-126 -222.5q85 -128 126 -225t77 -263h-35q-44 159 -108 253.5t-203 234.5z" />
<glyph unicode="&#x203a;" horiz-adv-x="571" d="M113 51q36 167 77 264t125 224q-85 126 -125.5 222t-76.5 263h34q23 -83 45.5 -138.5t64.5 -115t79 -100.5t123 -131q-72 -73 -110 -115.5t-81 -102t-70.5 -123t-50.5 -147.5h-34z" />
<glyph unicode="&#x205f;" horiz-adv-x="594" />
<glyph unicode="&#x20ac;" horiz-adv-x="1443" d="M113 973l10 51h266q9 245 45 403q24 108 56 175t85.5 107.5t122.5 55.5t176 15q269 0 308 -219l12 211h115v-457h-133l-9 86q-17 176 -83.5 250.5t-211.5 74.5q-64 0 -104.5 -9t-70.5 -27.5t-48.5 -58.5t-30.5 -89.5t-24 -132.5q-21 -143 -27 -385h545l-8 -51h-539 q-2 -49 -2 -150v-12h461l-10 -51h-451q3 -275 31 -416q20 -104 46.5 -167t69.5 -95.5t92 -41.5t128 -7q58 2 102 15.5t73 39.5t48 57.5t28.5 78.5t13 92.5t3.5 107.5v68h133v-82q0 -44 -3 -81t-13.5 -82.5t-28 -81.5t-48 -72t-71.5 -60t-101.5 -38.5t-135.5 -14.5 q-44 0 -72 0.5t-65.5 3t-62 8t-55.5 14t-52 22.5t-45.5 33t-42.5 45t-36.5 59t-34 75.5t-28.5 93.5q-43 166 -49 426h-244l11 51h231v51q0 74 2 111h-274z" />
<glyph unicode="&#x2122;" horiz-adv-x="1808" d="M113 1497v264h639v-264h-74v232h-199v-914h162v-35l-418 2v33h162v914h-199v-232h-73zM801 782v33h90v914h-90v32h217l229 -884h2l234 884h213v-32h-88v-914h88v-33h-273v33h90v907h-6l-250 -940h-79l-244 940h-6v-907h100v-33h-227z" />
<glyph unicode="&#x25fc;" horiz-adv-x="1024" d="M0 0v1024h1024v-1024h-1024z" />
</font>
</defs>
</svg>
