<?xml version="1.0" standalone="no"?>
<!DOCTYPE svg PUBLIC "-//W3C//DTD SVG 20010904//EN"
 "http://www.w3.org/TR/2001/REC-SVG-20010904/DTD/svg10.dtd">
<svg version="1.0" xmlns="http://www.w3.org/2000/svg"
 width="985.000000pt" height="985.000000pt" viewBox="0 0 985.000000 985.000000"
 preserveAspectRatio="xMidYMid meet">
<metadata>
Created by potrace 1.11, written by Peter Selinger 2001-2013
</metadata>
<g transform="translate(0.000000,985.000000) scale(0.100000,-0.100000)"
fill="#000000" stroke="none">
<path d="M4881 9023 c-28 -37 -72 -106 -98 -153 -170 -300 -188 -490 -56 -583
l43 -31 0 -118 0 -119 -152 3 -153 3 0 105 c-1 83 4 119 21 170 19 56 21 73
13 124 -20 120 -123 269 -351 504 -58 60 -83 80 -89 70 -4 -7 -10 -65 -15
-128 -23 -352 5 -552 83 -593 26 -14 26 -15 25 -128 0 -63 -1 -118 -1 -122 -1
-4 -42 -6 -92 -5 l-91 3 -3 88 c-6 162 -21 240 -71 364 -128 318 -265 462
-361 379 l-27 -24 38 -42 c128 -142 228 -373 270 -625 25 -153 29 -211 31
-490 2 -148 3 -273 4 -276 1 -3 488 -5 1083 -5 l1081 1 3 300 c1 165 5 316 8
335 3 19 8 58 12 85 25 220 132 493 249 638 30 37 55 73 55 80 0 24 -35 47
-71 47 -63 0 -119 -53 -198 -185 -92 -155 -157 -329 -167 -445 -3 -36 -7 -81
-9 -100 -2 -19 -4 -56 -4 -82 l-1 -48 -90 0 c-49 0 -90 3 -91 8 -1 4 -2 58 -3
121 -1 113 -1 113 25 127 58 30 89 148 91 346 2 150 -13 372 -25 385 -3 2 -29
-20 -59 -50 -211 -217 -333 -376 -368 -482 -18 -56 -17 -144 4 -183 15 -30 22
-122 17 -244 l-1 -28 -150 0 c-82 0 -150 3 -151 8 -1 4 -2 57 -3 117 l-1 110
41 26 c85 55 112 159 78 301 -14 57 -95 236 -142 313 -32 54 -74 118 -103 158
l-28 39 -50 -69z"/>
<path d="M1768 7845 c-2 -1 -25 -5 -53 -8 -219 -23 -418 -145 -403 -248 6 -39
31 -45 70 -16 61 47 127 70 206 73 39 1 72 0 72 -2 0 -3 -9 -14 -19 -25 -41
-44 -6 -103 92 -158 281 -153 444 -391 458 -666 3 -65 -1 -135 -9 -135 -4 0
-13 19 -20 42 -58 185 -198 341 -335 374 -27 6 -27 6 -21 -32 3 -22 8 -42 10
-46 9 -15 5 -175 -6 -223 -15 -70 -48 -151 -88 -216 l-34 -55 -28 28 c-32 31
-80 37 -141 17 -44 -15 -43 -14 -25 -41 25 -38 45 -132 41 -199 -10 -216 -158
-507 -427 -841 -44 -54 -77 -98 -75 -98 46 0 391 168 558 272 321 200 586 465
709 708 29 57 69 93 210 187 205 136 406 192 528 145 28 -11 52 -18 52 -15 0
22 -82 110 -132 142 l-28 18 73 0 c39 0 90 5 112 11 42 12 125 61 125 74 0 14
-91 61 -168 86 -95 31 -238 38 -322 16 -79 -21 -172 -77 -240 -144 l-60 -58 3
103 c5 160 -17 335 -60 470 -72 234 -239 404 -437 445 -53 11 -181 21 -188 15z
m126 -206 c235 -119 400 -326 443 -554 9 -51 6 -196 -4 -206 -5 -5 -8 3 -7 18
1 30 -20 150 -36 206 -52 180 -237 409 -435 541 -53 35 -36 33 39 -5z m17
-1279 c-20 -79 -77 -210 -122 -280 l-22 -35 34 36 c111 118 195 228 238 311
35 69 40 55 11 -32 -62 -183 -254 -419 -505 -618 -44 -35 -87 -69 -96 -77 -43
-34 -233 -154 -238 -149 -3 2 6 15 21 27 14 12 67 60 118 107 51 47 102 93
114 103 112 96 218 237 315 418 64 119 103 226 128 344 l18 90 3 -82 c2 -57
-3 -106 -17 -163z"/>
<path d="M7913 7834 c-237 -40 -405 -219 -479 -511 -32 -127 -39 -192 -39
-368 l0 -150 -65 65 c-177 176 -407 207 -656 88 -36 -17 -67 -35 -70 -39 -9
-15 75 -67 129 -80 28 -7 81 -12 116 -13 51 0 61 -2 47 -10 -40 -24 -70 -51
-107 -99 -22 -27 -38 -51 -36 -53 2 -2 19 4 38 13 49 26 171 27 249 3 191 -58
451 -229 505 -331 194 -374 645 -733 1202 -958 81 -32 81 -31 8 54 -176 205
-343 479 -406 666 -25 73 -33 116 -37 194 -4 100 -2 112 42 216 5 12 -3 18
-32 27 -66 20 -110 15 -139 -14 l-26 -26 -18 23 c-27 35 -80 147 -91 188 -5
20 -11 45 -14 56 -13 44 -13 193 0 247 l13 57 -28 -4 c-131 -16 -260 -159
-337 -374 -16 -47 -20 -51 -25 -30 -11 41 0 211 17 274 60 220 209 393 453
525 47 26 66 43 79 71 19 42 13 89 -12 89 -9 0 -12 5 -8 11 4 8 31 10 79 6 75
-5 157 -37 201 -78 27 -25 40 -24 60 6 15 23 15 27 -6 69 -25 53 -67 87 -157
128 -141 64 -306 87 -450 62z m87 -182 c-154 -106 -304 -262 -380 -397 -52
-93 -99 -254 -101 -348 -1 -51 -1 -51 -10 -17 -24 93 3 265 58 375 79 157 232
304 396 381 61 28 72 30 37 6z m-46 -1212 c34 -133 122 -308 244 -485 57 -83
93 -121 252 -265 52 -47 119 -109 149 -138 l56 -53 -70 42 c-320 191 -637 497
-750 724 -36 73 -68 165 -57 165 4 0 18 -21 32 -47 14 -27 28 -52 32 -58 51
-68 140 -178 170 -210 21 -22 38 -43 38 -47 0 -5 4 -8 9 -8 5 0 -6 25 -24 56
-80 133 -133 321 -121 429 3 28 6 52 7 55 1 3 5 -17 9 -45 4 -27 15 -79 24
-115z"/>
<path d="M4885 7209 c-104 -51 -437 -209 -440 -209 -2 0 -78 -36 -170 -80 -92
-44 -168 -80 -170 -80 -2 0 -76 -35 -166 -79 -160 -76 -255 -122 -429 -204
-47 -22 -170 -80 -275 -130 -211 -99 -340 -160 -460 -217 -44 -21 -136 -64
-205 -97 -69 -33 -149 -70 -177 -83 -39 -17 -53 -29 -54 -44 0 -12 -3 -68 -7
-126 -9 -150 -8 -831 1 -980 18 -269 45 -522 72 -670 2 -14 7 -45 10 -70 3
-25 8 -52 10 -60 2 -8 7 -30 10 -47 92 -544 313 -1171 569 -1613 87 -149 79
-137 165 -265 299 -445 668 -806 1113 -1086 140 -88 419 -225 558 -274 121
-42 123 -42 295 26 527 206 1064 636 1452 1159 194 263 377 587 503 890 28 69
55 134 60 145 46 103 194 593 217 715 2 14 9 45 14 70 13 56 15 67 35 165 16
85 19 97 28 160 3 22 7 49 10 60 2 11 7 45 11 75 3 30 8 66 10 80 2 14 7 52
11 85 3 33 8 67 9 76 2 9 6 54 10 100 4 46 8 100 10 119 19 179 27 893 13
1132 -7 115 -19 152 -58 174 -22 12 -210 103 -585 284 -293 141 -421 203 -580
280 -93 45 -228 111 -300 145 -71 35 -211 102 -310 150 -99 48 -229 111 -290
140 -60 29 -186 89 -278 134 -93 44 -172 81 -175 80 -4 0 -34 -13 -67 -30z
m240 -274 c77 -37 208 -100 290 -140 83 -40 215 -104 295 -142 80 -39 217
-105 305 -148 88 -43 225 -109 305 -148 259 -124 421 -203 625 -302 110 -53
238 -115 285 -137 47 -22 86 -41 88 -43 20 -18 18 -866 -3 -1085 -2 -19 -6
-78 -10 -130 -3 -52 -8 -102 -10 -110 -2 -8 -6 -46 -10 -85 -3 -38 -8 -77 -10
-85 -2 -8 -6 -37 -10 -65 -17 -144 -73 -433 -120 -624 -139 -557 -337 -1020
-618 -1441 -382 -572 -914 -1021 -1476 -1245 l-94 -37 -86 32 c-546 206 -1104
656 -1486 1201 -372 529 -645 1223 -760 1929 -8 52 -17 106 -19 120 -15 85
-43 314 -51 425 -4 44 -8 94 -10 110 -17 147 -25 894 -10 1030 6 57 8 61 43
77 20 10 98 46 172 82 74 35 173 81 220 103 47 23 263 125 480 228 404 192
525 249 665 315 123 58 309 146 425 201 58 27 175 83 260 123 100 47 160 71
170 66 8 -5 78 -38 155 -75z"/>
<path d="M4590 6655 c-190 -90 -401 -191 -470 -224 -69 -33 -165 -78 -215
-102 -49 -23 -137 -64 -195 -92 -58 -27 -141 -66 -185 -87 -44 -21 -129 -61
-190 -90 -60 -29 -141 -67 -180 -85 -38 -18 -119 -56 -180 -85 -60 -29 -152
-72 -202 -96 -51 -25 -93 -48 -94 -52 -19 -230 -16 -869 5 -1062 3 -19 7 -73
11 -119 3 -47 8 -98 11 -115 2 -17 6 -53 9 -81 3 -27 8 -57 10 -65 2 -8 7 -40
10 -70 10 -88 64 -365 96 -495 64 -255 163 -552 245 -733 167 -367 321 -620
553 -905 68 -83 225 -245 340 -350 248 -227 645 -467 912 -554 l77 -24 98 37
c109 41 324 147 422 209 717 453 1230 1175 1497 2105 64 225 128 523 150 700
4 30 8 57 10 60 2 3 6 39 10 80 12 120 12 122 20 190 25 223 38 821 22 1050
-3 36 -5 84 -6 107 l-1 42 -102 50 c-57 27 -184 88 -283 136 -99 48 -234 113
-300 145 -66 32 -201 97 -300 145 -99 48 -234 113 -300 145 -66 32 -210 101
-320 155 -460 223 -613 295 -628 294 -7 0 -167 -74 -357 -164z m590 32 c113
-53 310 -148 585 -282 110 -53 250 -121 310 -150 61 -29 205 -99 320 -155 116
-56 242 -117 280 -135 208 -97 470 -227 476 -236 10 -18 14 -134 13 -509 0
-402 -5 -513 -39 -810 -10 -90 -40 -289 -50 -340 -5 -23 -8 -42 -19 -110 -11
-63 -51 -235 -78 -335 -17 -60 -34 -123 -38 -140 -4 -16 -26 -85 -48 -152
-109 -322 -260 -640 -420 -888 -62 -95 -227 -324 -242 -335 -4 -3 -30 -33 -58
-67 -57 -68 -230 -244 -308 -311 -206 -180 -487 -361 -709 -458 -44 -19 -87
-39 -95 -43 -8 -4 -38 -14 -67 -21 -49 -13 -55 -12 -140 20 -180 67 -399 184
-578 308 -44 31 -84 60 -90 64 -5 4 -37 29 -70 56 -95 75 -141 117 -285 262
-266 266 -465 548 -646 915 -209 426 -339 848 -420 1370 -2 17 -6 41 -9 55 -2
14 -7 52 -10 85 -4 33 -8 67 -10 75 -2 8 -7 51 -11 95 -3 44 -8 88 -10 97 -16
88 -26 816 -15 1052 l4 68 116 55 c64 31 168 80 231 110 107 52 147 71 363
172 45 21 132 62 192 91 191 91 297 141 380 180 129 60 273 128 380 180 55 26
125 59 155 73 65 30 291 137 374 177 l59 29 66 -34 c36 -18 109 -53 161 -78z"/>
<path d="M4381 5921 c-12 -12 -22 -27 -22 -33 -1 -7 -3 -24 -5 -38 -5 -41 15
-89 39 -95 12 -2 64 -7 114 -10 151 -8 213 -49 227 -148 4 -27 9 -58 11 -68 5
-25 1 -26 -115 -34 -279 -17 -562 -93 -782 -209 -312 -163 -452 -422 -442
-816 7 -306 121 -547 330 -696 70 -50 226 -131 327 -168 l67 -26 1 23 c0 12 1
72 1 134 l1 112 -38 38 c-57 56 -125 171 -150 251 -6 21 -5 23 13 13 11 -6 38
-13 59 -17 53 -8 103 -34 127 -67 21 -28 21 -38 21 -635 0 -659 1 -643 -55
-683 -14 -10 -52 -21 -85 -25 -73 -8 -72 -7 -80 -45 -14 -61 -6 -62 286 -63
285 -1 289 0 289 53 0 39 -15 48 -85 55 -34 3 -71 14 -85 24 -56 41 -55 31
-58 632 -2 305 -1 553 1 550 3 -3 102 -225 222 -495 119 -269 222 -503 229
-520 49 -108 66 -147 91 -205 34 -79 63 -109 99 -103 14 3 29 10 34 17 5 6 55
124 110 261 145 361 407 1007 418 1030 13 28 17 -1004 4 -1074 -5 -29 -15 -60
-22 -68 -21 -26 -71 -45 -127 -50 -60 -6 -71 -14 -71 -53 0 -55 -8 -53 351
-54 365 -1 359 -2 359 60 0 36 -2 38 -85 49 -22 3 -49 8 -60 11 -26 8 -64 51
-73 83 -4 14 -7 292 -7 616 0 643 -2 625 57 668 17 13 49 22 85 25 32 2 64 9
71 14 16 14 16 73 -1 86 -11 10 -177 10 -469 2 -9 0 -20 -10 -23 -22 -4 -13
-13 -36 -21 -53 -7 -16 -61 -149 -119 -295 -59 -146 -112 -278 -120 -295 -7
-16 -61 -149 -120 -295 -58 -146 -110 -268 -113 -272 -4 -4 -94 190 -201 430
-268 604 -282 633 -335 690 -52 56 -125 94 -210 112 -75 15 -265 21 -288 9
-10 -5 -18 -22 -19 -37 l-1 -27 -9 30 c-18 58 -35 226 -33 324 7 347 93 538
303 678 112 74 307 136 476 149 l75 6 0 -34 c1 -18 1 -412 1 -876 l1 -842 109
-221 c60 -121 109 -224 109 -230 0 -35 26 11 80 144 68 165 75 181 116 276
l28 64 0 859 0 860 80 -7 c290 -24 533 -143 651 -320 89 -135 124 -294 120
-545 -1 -96 -5 -188 -9 -205 -39 -181 -88 -291 -171 -383 l-58 -63 0 -127 c-1
-148 -12 -141 128 -84 187 75 326 168 415 276 85 103 154 259 174 391 14 90
16 114 16 210 0 123 -6 178 -31 278 -34 136 -97 250 -188 344 -144 148 -473
293 -778 343 -105 17 -119 19 -223 25 -52 4 -101 8 -108 10 -9 3 -11 19 -7 57
16 133 71 172 260 184 98 6 122 19 125 64 5 57 -1 82 -25 106 l-26 26 -169 -7
c-220 -9 -547 -9 -782 0 -180 6 -188 5 -207 -14z"/>
<path d="M4329 3710 c-1 -3 -2 -44 -3 -92 l-1 -88 40 -8 c22 -4 41 -5 43 -2 1
4 -15 49 -37 101 -22 52 -41 92 -42 89z"/>
<path d="M5421 3596 c-45 -108 -42 -115 37 -90 14 4 18 164 3 164 -5 0 -23
-33 -40 -74z"/>
<path d="M5281 3241 c-5 -14 -22 -62 -39 -106 l-30 -80 128 -3 128 -3 1 96 1
95 -38 0 c-21 0 -61 6 -89 13 -52 14 -52 14 -62 -12z"/>
<path d="M4393 3233 c-23 -5 -31 -18 -39 -71 -11 -67 34 -121 96 -116 14 2 55
3 92 4 64 2 66 3 58 24 -5 11 -21 53 -37 91 l-29 70 -60 1 c-32 1 -69 0 -81
-3z"/>
<path d="M940 6356 c-23 -71 -11 -176 31 -259 l20 -38 -39 26 c-40 26 -140 65
-168 65 -11 0 -4 -13 24 -45 72 -82 99 -225 77 -415 -10 -83 -62 -292 -101
-400 -19 -52 -34 -96 -34 -97 0 -10 161 130 222 193 204 208 291 420 254 617
-23 123 -122 274 -238 361 l-36 27 -12 -35z"/>
<path d="M8798 6309 c-133 -132 -186 -246 -186 -397 0 -191 84 -351 288 -552
115 -113 211 -189 191 -152 -29 54 -109 333 -126 437 -3 22 -8 90 -10 150 -6
159 19 249 91 320 23 23 30 35 19 35 -32 0 -141 -42 -174 -68 -29 -22 -33 -23
-27 -6 34 81 46 118 50 162 4 51 -8 130 -24 146 -5 5 -45 -28 -92 -75z"/>
<path d="M1742 5594 c-208 -45 -431 -154 -528 -256 -191 -201 -288 -432 -280
-668 4 -116 7 -136 38 -230 59 -183 198 -382 351 -504 144 -115 347 -178 490
-151 20 4 37 11 37 16 0 5 -44 31 -97 57 -409 204 -638 454 -627 684 8 153
143 334 303 405 133 59 295 12 423 -125 43 -45 48 -48 61 -33 30 34 49 86 49
135 1 51 -35 180 -53 191 -19 12 -8 24 46 51 46 22 64 26 105 21 l49 -6 -10
27 c-31 81 -99 159 -156 176 -13 4 -23 11 -23 15 0 16 54 88 104 138 47 47 50
52 32 58 -43 14 -251 13 -314 -1z m-115 -252 c7 -5 -4 -8 -28 -9 -22 -1 -72
-17 -113 -37 -118 -57 -215 -165 -348 -388 -90 -150 -89 -150 -74 -98 38 133
101 251 190 361 61 75 120 120 204 155 57 23 145 32 169 16z"/>
<path d="M7817 5600 c-51 -9 -52 -14 -19 -42 30 -25 132 -147 132 -158 0 -3
-16 -12 -34 -18 -48 -18 -102 -74 -137 -144 l-30 -59 38 7 c21 3 40 7 43 7 14
2 89 -27 108 -42 l22 -16 -26 -64 c-44 -108 -42 -203 5 -268 22 -30 31 -29 64
12 40 50 123 108 191 134 138 51 266 16 392 -109 106 -105 155 -216 150 -340
-9 -215 -259 -467 -650 -654 -74 -36 -78 -40 -60 -53 42 -31 230 -9 349 42
221 95 451 372 526 632 84 296 -3 607 -242 859 -59 63 -86 82 -202 144 -215
115 -447 164 -620 130z m594 -284 c140 -66 277 -242 353 -454 36 -101 33 -108
-14 -28 -22 37 -40 70 -40 73 0 2 -32 52 -71 109 -79 117 -172 218 -236 257
-50 32 -150 66 -175 62 -11 -3 -16 0 -12 7 12 19 134 3 195 -26z"/>
<path d="M745 3960 c-262 -44 -508 -192 -693 -419 l-54 -65 27 -13 c14 -8 54
-20 88 -27 134 -28 295 -1 456 78 30 14 56 26 57 26 1 0 -16 -19 -37 -42 -66
-72 -132 -221 -153 -343 l-7 -40 46 52 c81 91 204 150 370 176 116 18 370 11
480 -13 22 -5 63 -12 90 -15 137 -19 724 -193 760 -226 30 -28 23 11 -8 43 -6
7 -44 51 -82 98 -177 215 -379 404 -560 523 -91 60 -261 147 -287 147 -8 0
-18 4 -24 9 -5 5 -49 19 -99 31 -99 24 -284 34 -370 20z"/>
<path d="M8775 3949 c-271 -55 -528 -211 -800 -484 -125 -125 -208 -218 -304
-342 l-32 -43 98 37 c209 77 502 163 638 188 210 38 302 48 440 49 251 1 418
-52 536 -169 27 -27 49 -52 49 -57 0 -4 4 -8 9 -8 12 0 -12 100 -44 186 -26
68 -63 140 -88 166 -6 8 -23 26 -37 42 l-25 27 75 -35 c157 -74 348 -100 470
-63 88 27 89 28 45 84 -114 142 -304 291 -460 361 -169 76 -387 99 -570 61z"/>
<path d="M1455 3169 c-104 -20 -147 -35 -235 -79 -155 -78 -272 -174 -347
-285 -117 -174 -183 -365 -189 -550 -3 -93 7 -189 21 -203 2 -2 19 13 37 34
18 21 59 57 92 81 l58 43 20 -40 c24 -48 83 -101 144 -129 58 -28 66 -27 54 5
-12 30 -6 62 23 127 15 34 25 47 37 43 8 -3 42 -15 75 -27 105 -37 207 -28
261 22 l24 22 -33 24 c-53 38 -106 104 -140 173 -28 56 -32 75 -32 140 0 65 5
86 32 141 35 71 114 158 189 207 160 107 332 100 498 -19 65 -47 163 -147 225
-229 86 -115 143 -205 196 -312 21 -43 42 -78 46 -78 4 0 11 21 15 48 43 263
-160 569 -493 743 -202 106 -382 137 -578 98z m45 -123 c-14 -7 -47 -26 -74
-40 -87 -48 -239 -153 -299 -206 -79 -71 -142 -163 -160 -232 -8 -31 -12 -59
-9 -62 3 -3 0 -6 -7 -6 -15 0 -13 86 3 140 44 149 243 314 476 396 73 26 107
31 70 10z"/>
<path d="M8158 3184 c-2 -1 -24 -5 -50 -8 -60 -8 -167 -41 -235 -72 -53 -24
-199 -109 -219 -128 -7 -6 -39 -33 -71 -61 -164 -138 -278 -362 -272 -534 2
-65 15 -109 28 -95 5 5 26 43 47 84 21 41 70 125 109 185 271 420 553 541 818
352 112 -80 176 -167 200 -272 26 -119 -13 -227 -126 -340 l-69 -69 28 -22
c68 -55 172 -51 327 11 28 11 71 -93 63 -152 -6 -42 -5 -44 17 -38 67 20 155
93 177 145 7 17 18 30 26 30 17 0 120 -82 155 -123 29 -34 37 -29 45 34 29
208 -27 435 -167 665 -57 95 -134 171 -256 251 -154 101 -305 152 -470 157
-56 1 -104 2 -105 0z m310 -169 c278 -113 465 -330 432 -502 -6 -27 -8 -31 -9
-13 -2 40 -28 116 -55 162 -57 97 -187 206 -391 328 -126 75 -119 83 23 25z"/>
<path d="M2691 2425 c-71 -77 -126 -175 -157 -283 -3 -9 -28 8 -69 46 -125
115 -266 159 -440 138 -57 -7 -167 -42 -215 -70 l-41 -23 37 -32 c50 -40 123
-64 201 -65 35 -1 63 -3 63 -6 0 -3 -15 -14 -32 -25 -34 -19 -128 -112 -128
-125 0 -5 21 0 48 9 174 65 449 -71 767 -379 98 -95 228 -198 279 -222 34 -15
33 -23 -4 -26 -88 -7 -233 -86 -328 -178 l-57 -55 35 -16 c53 -24 181 -21 254
5 l59 22 -25 -28 c-14 -15 -33 -38 -42 -53 -15 -24 -58 -139 -52 -139 2 0 20
15 40 34 130 119 445 90 830 -75 50 -21 91 -37 93 -35 9 9 -157 218 -232 291
-154 149 -314 229 -467 234 -38 1 -38 1 -87 104 -26 56 -54 120 -62 142 -7 22
-16 45 -20 50 -5 8 -16 42 -45 140 -2 6 -6 26 -9 45 -4 19 -10 54 -14 77 -22
119 6 252 67 317 27 28 27 28 4 21 -57 -17 -117 -50 -155 -83 -22 -21 -38 -29
-34 -20 26 71 37 181 23 228 -15 49 -29 80 -36 80 -4 0 -26 -20 -49 -45z"/>
<path d="M7075 2414 c-20 -65 -16 -167 9 -228 l15 -37 -43 36 c-36 29 -148 85
-171 85 -3 0 6 -12 21 -27 50 -50 69 -108 69 -213 0 -52 -3 -115 -7 -140 -16
-105 -73 -265 -154 -437 -36 -77 -41 -83 -70 -83 -168 0 -370 -114 -542 -306
-57 -64 -173 -216 -168 -221 1 -1 50 18 109 42 401 166 690 187 825 61 l33
-31 -7 30 c-11 48 -52 130 -79 159 -33 36 -32 38 12 20 50 -21 68 -25 142 -29
63 -3 151 18 151 35 0 9 -77 84 -120 118 -70 55 -202 112 -257 112 -31 0 -29
12 6 33 73 43 198 144 288 233 121 119 274 235 390 296 149 79 260 100 354 68
30 -10 55 -18 56 -16 8 7 -96 110 -133 132 -24 14 -44 27 -44 27 0 1 23 1 51
1 60 -2 141 16 184 39 34 19 75 52 75 61 0 17 -140 71 -225 87 -176 34 -347
-17 -473 -140 -39 -38 -62 -56 -63 -46 -2 24 -3 27 -23 80 -11 27 -34 74 -52
103 -33 56 -117 152 -132 152 -5 0 -17 -25 -27 -56z"/>
</g>
</svg>
